<?xml version="1.0" encoding="UTF-8" standalone="no"?>
<svg width="24px" height="24px" viewBox="0 0 24 24" version="1.1" xmlns="http://www.w3.org/2000/svg" xmlns:xlink="http://www.w3.org/1999/xlink">
    <!-- Generator: Sketch 42 (36781) - http://www.bohemiancoding.com/sketch -->
    <title>btn delete</title>
    <desc>Created with Sketch.</desc>
    <defs></defs>
    <g id="UI-Kit" stroke="none" stroke-width="1" fill="none" fill-rule="evenodd">
        <g transform="translate(-247.000000, -742.000000)" id="btn-delete" fill="#FF5B34">
            <g transform="translate(247.000000, 742.000000)">
                <g transform="translate(7.000000, 5.000000)" id="Fill-1">
                    <path d="M3.77339532,2.16697453 C4.16474899,2.14454871 4.57584889,2.13194754 4.99913265,2.13194754 C5.4075017,2.13194754 5.80221643,2.14454871 6.18159631,2.16441158 L6.18159631,1.47903594 C6.18159631,1.174472 6.14063337,0.925011501 6.09021743,0.925011501 L5.4543465,0.925011501 L4.36347178,0.925011501 L3.72655052,0.925011501 C3.67718492,0.925011501 3.63538171,1.174472 3.63538171,1.47903594 L3.63538171,2.17573128 L3.77339532,2.16697453 L3.77339532,2.16697453 Z M7.09013341,2.23660135 C8.80637574,2.41493998 9.99997292,2.80514917 9.99997292,3.25836423 L9.99997292,4.08982804 C9.99997292,4.26047782 9.82834868,4.42279801 9.52543296,4.56909976 C8.72592032,4.9505522 7.00064513,5.21496325 4.99913265,5.21496325 C2.99909064,5.21496325 1.27318525,4.9505522 0.474722938,4.56909976 C0.169916619,4.42279801 -2.70833334e-05,4.26047782 -2.70833334e-05,4.08982804 L-2.70833334e-05,3.25836423 C-2.70833334e-05,2.82052687 1.10807308,2.44249169 2.72684461,2.25582348 L2.72684461,0.554665174 C2.72684461,0.250955556 2.97241221,0 3.27091653,0 L6.54501115,0 C6.84561614,0 7.09013341,0.250955556 7.09013341,0.554665174 L7.09013341,2.23660135 L7.09013341,2.23660135 Z M9.39981327,5.96483981 L9.39729247,5.99751742 C9.39729247,6.00114827 9.39981327,6.00477912 9.39981327,6.00883712 C9.39981327,6.01759387 9.39729247,6.02528272 9.39666227,6.03361231 L9.05425407,13.1573328 L9.05173327,13.1573328 C9.02211391,13.7158424 8.39275504,14.560121 4.99913265,14.560121 C1.6059304,14.560121 0.976781588,13.7158424 0.946532029,13.1573328 L0.945691764,13.1573328 L0.603703696,6.03361231 C0.602443297,6.02528272 0.600132567,6.01759387 0.600132567,6.00883712 C0.600132567,6.00477912 0.601392965,6.00114827 0.601392965,5.99751742 L0.600132567,5.96483981 L0.604123828,5.96483981 C0.616517745,5.90482405 0.650128366,5.84608977 0.704115426,5.78970486 C1.14273403,6.24078413 2.89825877,6.31553685 4.99913265,6.31553685 C7.10000653,6.31553685 8.8572118,6.24078413 9.29393981,5.78970486 C9.34813694,5.84608977 9.38426835,5.90482405 9.39393141,5.96483981 L9.39981327,5.96483981 Z"></path>
                </g>
            </g>
        </g>
    </g>
</svg>