<?xml version="1.0" encoding="UTF-8" standalone="no"?>
<svg width="60px" height="60px" viewBox="0 0 60 60" version="1.1" xmlns="http://www.w3.org/2000/svg" xmlns:xlink="http://www.w3.org/1999/xlink">
    <!-- Generator: Sketch 43.1 (39012) - http://www.bohemiancoding.com/sketch -->
    <title>btn_delete big</title>
    <desc>Created with Sketch.</desc>
    <defs></defs>
    <g id="Symbols" stroke="none" stroke-width="1" fill="none" fill-rule="evenodd">
        <g id="btn_delete-big">
            <g id="btn_addnew" fill="#FF5B34">
                <circle id="Oval-2" cx="30" cy="30" r="30"></circle>
            </g>
            <g id="btn-delete" transform="translate(19.000000, 14.000000)" fill="#FFFFFF">
                <path d="M8.30152928,4.91137124 C9.16250735,4.86054392 10.0669271,4.83198381 10.9981514,4.83198381 C11.8965633,4.83198381 12.7649357,4.86054392 13.5995715,4.9055624 L13.5995715,3.35218271 C13.5995715,2.66189931 13.509453,2.0965059 13.3985379,2.0965059 L11.9996219,2.0965059 L9.5996975,2.0965059 L8.19847072,2.0965059 C8.0898664,2.0965059 7.99789934,2.66189931 7.99789934,3.35218271 L7.99789934,4.9312181 L8.30152928,4.91137124 L8.30152928,4.91137124 Z M15.5983531,5.06917796 C19.3740862,5.47337617 22,6.35777152 22,7.38496744 L22,9.2694508 C22,9.6562225 21.6224267,10.0241155 20.9560121,10.3557032 C19.1970843,11.2202517 15.4014789,11.81953 10.9981514,11.81953 C6.59805899,11.81953 2.80106714,11.2202517 1.04445005,10.3557032 C0.373876145,10.0241155 0,9.6562225 0,9.2694508 L0,7.38496744 C0,6.39262454 2.43782035,5.53582116 5.99911772,5.11274424 L5.99911772,1.25712903 C5.99911772,0.568781905 6.53936644,0 7.19607596,0 L14.3990841,0 C15.0604151,0 15.5983531,0.568781905 15.5983531,1.25712903 L15.5983531,5.06917796 L15.5983531,5.06917796 Z" id="Fill-1"></path>
                <path d="M20.6796488,13.5190988 L20.674103,13.5931614 C20.674103,13.6013906 20.6796488,13.6096198 20.6796488,13.6188171 C20.6796488,13.638664 20.674103,13.6560905 20.6727166,13.6749692 L19.9194185,29.8206302 L19.9138728,29.8206302 C19.8487102,31.0864725 18.4641207,33 10.9981514,33 C3.53310646,33 2.14897908,31.0864725 2.08243005,29.8206302 L2.08058146,29.8206302 L1.32820771,13.6749692 C1.32543484,13.6560905 1.32035123,13.638664 1.32035123,13.6188171 C1.32035123,13.6096198 1.32312411,13.6013906 1.32312411,13.5931614 L1.32035123,13.5190988 L1.32913201,13.5190988 C1.35639862,13.3830752 1.43034199,13.249956 1.54911352,13.1221616 C2.51407445,14.1445168 6.37622889,14.3139412 10.9981514,14.3139412 C15.6200739,14.3139412 19.4859256,14.1445168 20.4467272,13.1221616 C20.5659608,13.249956 20.64545,13.3830752 20.6667087,13.5190988 L20.6796488,13.5190988 Z M4.58333333,17.878718 L4.58333333,29.2641391 C4.58333333,29.7619042 4.99373898,30.1714286 5.5,30.1714286 C6.00979058,30.1714286 6.41666667,29.7652212 6.41666667,29.2641391 L6.41666667,17.878718 C6.41666667,17.380953 6.00626102,16.9714286 5.5,16.9714286 C4.99020942,16.9714286 4.58333333,17.3776359 4.58333333,17.878718 Z M8.25,17.8884838 L8.25,30.1972305 C8.25,30.7062699 8.66040565,31.1142857 9.16666667,31.1142857 C9.67645725,31.1142857 10.0833333,30.7037061 10.0833333,30.1972305 L10.0833333,17.8884838 C10.0833333,17.3794444 9.67292769,16.9714286 9.16666667,16.9714286 C8.65687609,16.9714286 8.25,17.3820082 8.25,17.8884838 Z M11.9166667,17.8884838 L11.9166667,30.1972305 C11.9166667,30.7062699 12.3270723,31.1142857 12.8333333,31.1142857 C13.3431239,31.1142857 13.75,30.7037061 13.75,30.1972305 L13.75,17.8884838 C13.75,17.3794444 13.3395944,16.9714286 12.8333333,16.9714286 C12.3235428,16.9714286 11.9166667,17.3820082 11.9166667,17.8884838 Z M15.5833333,17.878718 L15.5833333,29.2641391 C15.5833333,29.7619042 15.993739,30.1714286 16.5,30.1714286 C17.0097906,30.1714286 17.4166667,29.7652212 17.4166667,29.2641391 L17.4166667,17.878718 C17.4166667,17.380953 17.006261,16.9714286 16.5,16.9714286 C15.9902094,16.9714286 15.5833333,17.3776359 15.5833333,17.878718 Z" id="Combined-Shape"></path>
            </g>
        </g>
    </g>
</svg>