<?xml version="1.0" encoding="UTF-8" standalone="no"?>
<svg width="50px" height="50px" viewBox="0 0 50 50" version="1.1" xmlns="http://www.w3.org/2000/svg" xmlns:xlink="http://www.w3.org/1999/xlink">
    <!-- Generator: Sketch 42 (36781) - http://www.bohemiancoding.com/sketch -->
    <title>btn_copypolicy</title>
    <desc>Created with Sketch.</desc>
    <defs></defs>
    <g id="UI-Kit" stroke="none" stroke-width="1" fill="none" fill-rule="evenodd">
        <g transform="translate(-1091.000000, -462.000000)" fill="#FFFFFF">
            <g id="btn_copy" transform="translate(1093.000000, 462.000000)">
                <path d="M28.3333333,23.3333333 L31.6666667,23.3333333 L31.6666667,31.6666667 L23.3333333,31.6666667 L23.3333333,28.3333333 L28.3333333,28.3333333 L28.3333333,23.3333333 L28.3333333,23.3333333 Z M33.3333333,23.3333333 L33.3333333,21.6666667 L28.3333333,21.6666667 L28.3333333,16.6666667 L16.6666667,16.6666667 L16.6666667,28.3333333 L21.6666667,28.3333333 L21.6666667,31.6666667 L21.6666667,33.3333333 L23.3333333,33.3333333 L31.6666667,33.3333333 L33.3333333,33.3333333 L33.3333333,31.6666667 L33.3333333,23.3333333 L33.3333333,23.3333333 Z" id="Shape"></path>
            </g>
            <g id="btn_copypolicy" transform="translate(1091.000000, 462.000000)">
                <g id="btn_addnew">
                    <path d="M28.3333333,23.3333333 L31.6666667,23.3333333 L31.6666667,31.6666667 L23.3333333,31.6666667 L23.3333333,28.3333333 L28.3333333,28.3333333 L28.3333333,23.3333333 L28.3333333,23.3333333 Z M33.3333333,23.3333333 L33.3333333,21.6666667 L28.3333333,21.6666667 L28.3333333,16.6666667 L16.6666667,16.6666667 L16.6666667,28.3333333 L21.6666667,28.3333333 L21.6666667,31.6666667 L21.6666667,33.3333333 L23.3333333,33.3333333 L31.6666667,33.3333333 L33.3333333,33.3333333 L33.3333333,31.6666667 L33.3333333,23.3333333 L33.3333333,23.3333333 Z" id="Shape"></path>
                </g>
            </g>
        </g>
    </g>
</svg>