<svg id="圖層_1" data-name="圖層 1" xmlns="http://www.w3.org/2000/svg" viewBox="0 0 50 50"><defs><style>.cls-1{fill:#fff;}</style></defs><title>btn_print</title><path class="cls-1" d="M37.5,23.17v5.24a3.36,3.36,0,0,1-3.88,3.29c0,1,0,1.82,0,2.65a2.91,2.91,0,0,1-3.23,3.14q-5.43,0-10.86,0a3,3,0,0,1-3.21-3.18c0-.82,0-1.65,0-2.5l-.6-.07c-2.18-.14-3.18-1.17-3.2-3.31,0-1.75,0-3.5,0-5.25a2.83,2.83,0,0,1,2.76-3c.32,0,.63-.08,1-.13,0-1.32.05-2.57,0-3.81a3.46,3.46,0,0,1,2.22-3.78h13a3.5,3.5,0,0,1,2.14,3.79c-.07,1.26,0,2.53,0,3.93C35.52,20,37.56,21.43,37.5,23.17ZM18.26,27c0,2.54-.05,5,0,7.5a1.5,1.5,0,0,0,1.09,1q5.59.1,11.21,0c.37,0,1-.58,1.05-.91.09-2.52.05-5,.05-7.58Zm0-6.87H31.71c0-1.61.08-3.14-.05-4.65a1.52,1.52,0,0,0-1.12-1c-3.69-.08-7.39-.05-11.09-.05-.74,0-1.19.33-1.19,1.12C18.25,17.05,18.26,18.54,18.26,20.13Zm2,8.76v1.77h9.45V28.89Zm6.58,4.69V31.8h-6.6v1.78Zm8-10v-.52a1,1,0,0,0-1-1h-.53a1,1,0,0,0-1,1v.52a1,1,0,0,0,1,1h.53A1,1,0,0,0,34.88,23.57Z"/></svg>