<?xml version="1.0" encoding="utf-8"?>
<!-- Generator: Adobe Illustrator 24.0.3, SVG Export Plug-In . SVG Version: 6.00 Build 0)  -->
<svg version="1.1" id="圖層_1" xmlns="http://www.w3.org/2000/svg" xmlns:xlink="http://www.w3.org/1999/xlink" x="0px" y="0px"
	 viewBox="0 0 208 208" style="enable-background:new 0 0 208 208;" xml:space="preserve">
<style type="text/css">
	.st0{fill:#FFFFFF;}
</style>
<text id="_0800" transform="matrix(1 0 0 1 318.7095 29.0107)" class="st0" style="font-family:'PingFangTC-Semibold-B5pc-H'; font-size:66.9px;">0800</text>
<g>
	<path class="st0" d="M124,102.3c8.9,0,16-7.2,16-16.1s-7.1-16.1-16-16.1s-16.1,7.2-16.1,16.1S115.1,102.3,124,102.3z"/>
	<path class="st0" d="M75.7,95.9c10.7,0,19.3-8.6,19.3-19.3s-8.6-19.3-19.3-19.3s-19.3,8.6-19.3,19.3S65,95.9,75.7,95.9z"/>
	<path class="st0" d="M75.7,108.8c-15,0-45.1,7.5-45.1,22.5v16.1h45.1v-14.5c0-5.5,2.1-15.1,15.3-22.4
		C85.4,109.4,80,108.8,75.7,108.8z"/>
	<path class="st0" d="M157.1,110.2c-11.2,0-20.3,9.1-20.3,20.3s9.1,20.3,20.3,20.3s20.3-9.1,20.3-20.3S168.3,110.2,157.1,110.2z
		 M169.4,132.5h-10.2v10.2h-4.1v-10.2h-10.2v-4.1h10.2v-10.2h4.1v10.2h10.2V132.5z"/>
	<path class="st0" d="M131.1,131.3c0-5.6,3.1-14,6.9-17.7c-4.8-1.1-9.5-1.7-13.2-1.7c-11.8,0-36.2,9.2-36.2,21v14.5h50.5
		C134.3,143.7,131.1,137.9,131.1,131.3z"/>
</g>
</svg>
