<?xml version="1.0" encoding="UTF-8" standalone="no"?>
<svg width="50px" height="50px" viewBox="0 0 50 50" version="1.1" xmlns="http://www.w3.org/2000/svg" xmlns:xlink="http://www.w3.org/1999/xlink">
    <!-- Generator: Sketch 42 (36781) - http://www.bohemiancoding.com/sketch -->
    <title>btn_unsave</title>
    <desc>Created with Sketch.</desc>
    <defs>
        <polygon id="path-1" points="19.9771575 0.0225766871 2.04498978e-05 0.0225766871 2.04498978e-05 19.9999877 19.9771575 19.9999877 19.9771575 0.0225766871"></polygon>
    </defs>
    <g id="UI-Kit" stroke="none" stroke-width="1" fill="none" fill-rule="evenodd">
        <g transform="translate(-1091.000000, -330.000000)" id="btn_unsave">
            <g transform="translate(1091.000000, 330.000000)">
                <g id="Page-1">
                    <g transform="translate(15.000000, 15.000000)">
                        <path d="M13.7190143,3.7310184 C13.9410184,3.7310184 14.122818,3.54983231 14.122818,3.32737832 L14.122818,0.0409161554 L5.85418814,0.0409161554 L5.85418814,3.32737832 C5.85418814,3.54983231 6.03553783,3.7310184 6.25876892,3.7310184 L13.7190143,3.7310184 Z" id="Fill-1" fill="#FFFFFF"></path>
                        <g id="Group-5" transform="translate(0.000000, 0.018323)">
                            <mask id="mask-2" fill="white">
                                <use xlink:href="#path-1"></use>
                            </mask>
                            <g id="Clip-4"></g>
                            <path d="M19.6652147,5.04771779 C19.8648466,5.24784049 19.9771575,5.51921063 19.9771575,5.80276892 L19.9771575,18.1673497 C19.9771575,19.1792106 19.1563804,19.9999877 18.1445194,19.9999877 L1.83319018,19.9999877 C0.820674847,19.9999877 2.04498978e-05,19.179047 2.04498978e-05,18.1673497 L2.04498978e-05,1.85524335 C2.04498978e-05,0.843423313 0.820674847,0.0225644172 1.83319018,0.0225644172 L4.52271984,0.0225644172 L4.52271984,3.30902658 C4.52271984,4.2662045 5.30137014,5.0450593 6.25875256,5.0450593 L13.7190389,5.0450593 C14.6762577,5.0450593 15.4551125,4.2662045 15.4551125,3.30902658 L15.4551125,0.81990593 L19.6652147,5.04771779 Z M16.8695092,15.7962658 L16.8695092,10.219047 C16.8695092,9.62890389 16.3908589,9.14959918 15.7992434,9.14959918 L4.17732106,9.14959918 C3.58627812,9.14959918 3.10762781,9.62886299 3.10762781,10.219047 L3.10762781,15.7962658 C3.10762781,16.3865317 3.58627812,16.8659591 4.17732106,16.8659591 L15.7992434,16.8659591 C16.3908589,16.8659591 16.8695092,16.3866135 16.8695092,15.7962658 Z M14.5805562,10.8664049 C14.9482454,10.8664049 15.246364,11.1638691 15.246364,11.5322127 C15.246364,11.900638 14.9482454,12.1981022 14.580638,12.1981022 L5.39662986,12.1981022 C5.0281636,12.1981022 4.73016769,11.900638 4.73016769,11.5322127 C4.73016769,11.1638691 5.0281636,10.8664049 5.39662986,10.8664049 L14.5805562,10.8664049 Z M13.2488384,13.5303231 C13.6166912,13.5303231 13.914728,13.8277873 13.9146462,14.1961309 C13.9146462,14.5638609 13.6166094,14.8620613 13.2487566,14.8620613 L6.72826585,14.8620613 C6.36041309,14.8620613 6.06241718,14.5638609 6.06241718,14.1961309 C6.06241718,13.8277873 6.36041309,13.5303231 6.72826585,13.5303231 L13.2488384,13.5303231 Z" id="Combined-Shape" fill="#FFFFFF" mask="url(#mask-2)"></path>
                        </g>
                    </g>
                </g>
            </g>
        </g>
    </g>
</svg>