<?xml version="1.0" encoding="utf-8"?>
<!-- Generator: Adobe Illustrator 19.2.1, SVG Export Plug-In . SVG Version: 6.00 Build 0)  -->
<svg version="1.1" id="圖層_1" xmlns="http://www.w3.org/2000/svg" xmlns:xlink="http://www.w3.org/1999/xlink" x="0px" y="0px"
	 viewBox="0 0 50 50" style="enable-background:new 0 0 50 50;" xml:space="preserve">
<style type="text/css">
	.st0{fill:#FFFFFF;}
</style>
<title>btn_unsave</title>
<desc>Created with Sketch.</desc>
<g>
	<path class="st0" d="M27.2,11.6c1.4,1.4,3,3,4.4,4.4c0.8,0.8,1.7,1.7,2.4,2.4c0.1,0.1,0.1,0.1,0.1,0.3c0,1.1,0,2.3,0,3.4
		c-0.3,0-0.6,0-0.8,0c-2,0-3.7,0.6-5.4,1.6c-0.1,0.1-0.3,0.1-0.4,0.1c-3.5,0-7.1,0-10.6,0c-0.1,0-0.3,0-0.3,0c0,0.6,0,1.1,0,1.7
		c3.1,0,6.1,0,9.2,0c-0.3,0.4-0.6,0.8-0.8,1.3c-0.1,0.4-0.4,0.6-1,0.6c-2.4,0-4.8,0-7.2,0c-0.1,0-0.1,0-0.3,0c0,0.6,0,1.1,0,1.7
		c2.4,0,4.9,0,7.4,0c-0.1,0.6-0.3,1.1-0.3,1.7c-2.4,0-4.7,0-7.1,0c0,0.6,0,1.1,0,1.8c2.4,0,4.7,0,7.1,0c0.1,0.6,0.3,1.3,0.4,1.8
		c0.1,0.6,0.4,1.1,0.6,1.7c-0.3,0-0.7,0-1,0c-2.8,0-5.7,0-8.5,0c-1,0-1.7-0.4-2-1.4l0,0c0-7.2,0-14.4,0-21.6c0.1-0.6,0.4-1,1-1.3
		c0.3-0.1,0.4-0.1,0.7-0.3C18.9,11.6,23,11.6,27.2,11.6z M16.6,22c4.7,0,9.5,0,14.1,0c0-0.6,0-1.1,0-1.7c-4.7,0-9.5,0-14.1,0
		C16.6,20.9,16.6,21.5,16.6,22z M27.2,13.3c0,0.1,0,0.1,0,0.3c0,1.3,0,2.4,0,3.7c0,0.8,0.6,1.4,1.4,1.4c1.1,0,2.4,0,3.5,0
		c0.1,0,0.1,0,0.3,0C30.8,16.8,28.9,15.1,27.2,13.3z"/>
	<path class="st0" d="M25.4,30.1c0-3.5,3-6.4,6.5-6.2c3,0.1,5.5,2.5,5.8,5.5c0.1,1.1-0.1,2.3-0.6,3.4c-0.1,0.1,0,0.3,0.1,0.4
		c1.3,1.3,2.4,2.4,3.7,3.7c0.6,0.6,0.6,1.1,0,1.7c-0.3,0.3-0.6,0.6-0.8,0.8c-0.6,0.6-1.1,0.6-1.6,0c-1.3-1.3-2.4-2.4-3.7-3.7
		c-0.3-0.3-0.4-0.3-0.6-0.1c-3.7,1.8-8.2-0.6-8.8-4.7C25.5,30.6,25.5,30.4,25.4,30.1z M27.2,29.9c0,2.4,2,4.4,4.4,4.4s4.4-2,4.4-4.4
		s-2-4.4-4.4-4.4S27.2,27.5,27.2,29.9z"/>
</g>
</svg>
