<?xml version="1.0" encoding="UTF-8" standalone="no"?>
<svg width="50px" height="50px" viewBox="0 0 50 50" version="1.1" xmlns="http://www.w3.org/2000/svg" xmlns:xlink="http://www.w3.org/1999/xlink">
    <!-- Generator: Sketch 42 (36781) - http://www.bohemiancoding.com/sketch -->
    <title>btn_alert_big</title>
    <desc>Created with Sketch.</desc>
    <defs></defs>
    <g id="UI-Kit" stroke="none" stroke-width="1" fill="none" fill-rule="evenodd">
        <g transform="translate(-1091.000000, -529.000000)" id="btn_alert_big">
            <g transform="translate(1091.000000, 529.000000)">
                <g id="btn_addnew"></g>
                <path d="M26.5159741,12.6322 C32.3713902,22.21379 37.7568761,31.0264033 38.2268063,31.79538 C38.6967365,32.5643567 38.7864696,33.3333333 37.5,33.3333333 L13.3333333,33.3333333 C12.5,33.3333333 11.75784,33.1841406 12.5665385,31.8608157 C13.3752371,30.5374908 18.4397044,22.2501806 24.3128703,12.6395455 C24.8647685,11.7364394 25.6062992,11.1436411 26.5159741,12.6322 Z M24.315,17.7433333 L24.7733333,27.075 L26.3316667,27.075 L26.79,17.7433333 L24.315,17.7433333 Z M25.5433333,28.065 C25.14,28.065 24.81,28.1933333 24.5533333,28.45 C24.26,28.7066667 24.1316667,29.0366667 24.1316667,29.44 C24.1316667,29.8433333 24.26,30.1733333 24.5533333,30.43 C24.81,30.6866667 25.14,30.8333333 25.5433333,30.8333333 C25.9466667,30.8333333 26.2766667,30.705 26.57,30.4483333 C26.8266667,30.1916667 26.9733333,29.8433333 26.9733333,29.44 C26.9733333,29.0366667 26.8266667,28.7066667 26.57,28.45 C26.295,28.1933333 25.9466667,28.065 25.5433333,28.065 Z" id="Combined-Shape" fill="#FFFFFF"></path>
            </g>
        </g>
    </g>
</svg>