<?xml version="1.0" encoding="utf-8"?>
<!-- Generator: Adobe Illustrator 24.0.3, SVG Export Plug-In . SVG Version: 6.00 Build 0)  -->
<svg version="1.1" id="圖層_1" xmlns="http://www.w3.org/2000/svg" xmlns:xlink="http://www.w3.org/1999/xlink" x="0px" y="0px"
	 viewBox="0 0 208 208" style="enable-background:new 0 0 208 208;" xml:space="preserve">
<style type="text/css">
	.st0{fill:#FFFFFF;}
</style>
<text id="_0800" transform="matrix(1 0 0 1 318.7095 29.0107)" class="st0" style="font-family:'PingFangTC-Semibold-B5pc-H'; font-size:66.9px;">0800</text>
<g>
	<path class="st0" d="M394.8,141.8c8.9,0,16-7.2,16-16.1s-7.1-16.1-16-16.1c-8.9,0-16.1,7.2-16.1,16.1S385.9,141.8,394.8,141.8z"/>
	<path class="st0" d="M346.5,135.4c10.7,0,19.3-8.6,19.3-19.3s-8.6-19.3-19.3-19.3c-10.7,0-19.3,8.6-19.3,19.3
		S335.8,135.4,346.5,135.4z"/>
	<path class="st0" d="M346.5,148.2c-15,0-45.1,7.5-45.1,22.5v16.1h45.1v-14.5c0-5.5,2.1-15.1,15.3-22.4
		C356.2,148.9,350.7,148.2,346.5,148.2z"/>
	<path class="st0" d="M427.9,149.7c-11.2,0-20.3,9.1-20.3,20.3s9.1,20.3,20.3,20.3s20.3-9.1,20.3-20.3S439.1,149.7,427.9,149.7z
		 M440.2,172h-10.2v10.2h-4.1V172h-10.2v-4.1h10.2v-10.2h4.1v10.2h10.2V172z"/>
	<path class="st0" d="M401.9,170.8c0-5.6,3.1-14,6.9-17.7c-4.8-1.1-9.5-1.7-13.2-1.7c-11.8,0-36.2,9.2-36.2,21v14.5h50.5
		C405,183.2,401.9,177.4,401.9,170.8z"/>
</g>
<path class="st0" d="M149.4,58.1c-1.3-3.9-5-6.6-9.3-6.6H67.9c-4.3,0-7.9,2.8-9.3,6.6L45,97.4v52.5c0,3.6,3,6.6,6.6,6.6h6.6
	c3.6,0,6.6-3,6.6-6.6v-6.6h78.7v6.6c0,3.6,3,6.6,6.6,6.6h6.6c3.6,0,6.6-3,6.6-6.6V97.4L149.4,58.1z M67.9,123.7
	c-5.4,0-9.8-4.4-9.8-9.8c0-5.4,4.4-9.8,9.8-9.8s9.8,4.4,9.8,9.8C77.8,119.3,73.4,123.7,67.9,123.7z M140.1,123.7
	c-5.4,0-9.8-4.4-9.8-9.8c0-5.4,4.4-9.8,9.8-9.8s9.8,4.4,9.8,9.8C149.9,119.3,145.5,123.7,140.1,123.7z M58.1,90.9l9.8-29.5h72.2
	l9.8,29.5H58.1z"/>
</svg>
