<?xml version="1.0" encoding="utf-8"?>
<!-- Generator: Adobe Illustrator 16.0.0, SVG Export Plug-In . SVG Version: 6.00 Build 0)  -->
<!DOCTYPE svg PUBLIC "-//W3C//DTD SVG 1.1//EN" "http://www.w3.org/Graphics/SVG/1.1/DTD/svg11.dtd">
<svg version="1.1" id="圖層_1" xmlns="http://www.w3.org/2000/svg" xmlns:xlink="http://www.w3.org/1999/xlink" x="0px" y="0px"
	 width="28px" height="28px" viewBox="0 0 28 28" enable-background="new 0 0 28 28" xml:space="preserve">
<title>ico/doc_doc</title>
<desc>Created with Sketch.</desc>
<g id="Symbols">
	<g id="ico_x2F_doc_x5F_doc">
		<path id="ico_x2F_doc" fill="#B6A08E" d="M6,26v-3h11v-9H6V2h14v6h6v18H6z M1,15h15v7H1V15z M21,2l5,5h-5V2z"/>
		<g enable-background="new    ">
			<path fill="#FFFFFF" d="M2.434,16.205h1.585c0.357,0,0.63,0.027,0.817,0.082c0.252,0.074,0.468,0.206,0.647,0.396
				s0.316,0.422,0.41,0.696s0.141,0.612,0.141,1.015c0,0.354-0.044,0.658-0.132,0.914c-0.107,0.312-0.261,0.565-0.46,0.759
				c-0.15,0.146-0.354,0.261-0.609,0.343C4.642,20.47,4.386,20.5,4.065,20.5H2.434V16.205z M3.301,16.932v2.845h0.647
				c0.242,0,0.417-0.014,0.524-0.041c0.141-0.035,0.257-0.095,0.35-0.179s0.168-0.222,0.227-0.414s0.088-0.455,0.088-0.787
				s-0.029-0.587-0.088-0.765s-0.141-0.316-0.246-0.416s-0.239-0.167-0.401-0.202c-0.121-0.027-0.358-0.041-0.712-0.041H3.301z"/>
			<path fill="#FFFFFF" d="M6.594,18.379c0-0.438,0.065-0.805,0.196-1.102c0.098-0.219,0.231-0.415,0.4-0.589
				s0.354-0.303,0.555-0.387c0.268-0.113,0.576-0.17,0.926-0.17c0.633,0,1.139,0.196,1.519,0.589s0.57,0.938,0.57,1.638
				c0,0.693-0.188,1.236-0.565,1.628s-0.881,0.587-1.512,0.587c-0.639,0-1.146-0.194-1.523-0.585
				C6.782,19.6,6.594,19.062,6.594,18.379z M7.487,18.35c0,0.486,0.112,0.855,0.337,1.105c0.225,0.252,0.51,0.377,0.855,0.377
				s0.629-0.125,0.851-0.373c0.222-0.25,0.333-0.623,0.333-1.121c0-0.492-0.108-0.859-0.324-1.102s-0.502-0.363-0.86-0.363
				s-0.646,0.123-0.864,0.367C7.597,17.486,7.487,17.855,7.487,18.35z"/>
			<path fill="#FFFFFF" d="M14.185,18.921l0.841,0.267c-0.129,0.469-0.344,0.817-0.643,1.045c-0.3,0.228-0.68,0.341-1.141,0.341
				c-0.57,0-1.039-0.194-1.406-0.585c-0.367-0.389-0.551-0.922-0.551-1.598c0-0.715,0.185-1.27,0.554-1.666
				c0.369-0.395,0.854-0.593,1.456-0.593c0.525,0,0.952,0.155,1.28,0.466c0.195,0.184,0.342,0.447,0.439,0.791l-0.858,0.205
				c-0.051-0.223-0.157-0.398-0.318-0.527s-0.357-0.193-0.587-0.193c-0.318,0-0.577,0.114-0.775,0.343s-0.297,0.599-0.297,1.11
				c0,0.543,0.098,0.93,0.293,1.16s0.449,0.346,0.762,0.346c0.23,0,0.429-0.073,0.595-0.22S14.112,19.235,14.185,18.921z"/>
		</g>
	</g>
</g>
</svg>
