<?xml version="1.0" encoding="utf-8"?>
<!-- Generator: Adobe Illustrator 16.0.0, SVG Export Plug-In . SVG Version: 6.00 Build 0)  -->
<!DOCTYPE svg PUBLIC "-//W3C//DTD SVG 1.1//EN" "http://www.w3.org/Graphics/SVG/1.1/DTD/svg11.dtd">
<svg version="1.1" id="圖層_1" xmlns="http://www.w3.org/2000/svg" xmlns:xlink="http://www.w3.org/1999/xlink" x="0px" y="0px"
	 width="28px" height="28px" viewBox="0 0 28 28" enable-background="new 0 0 28 28" xml:space="preserve">
<title>ico/doc_xls</title>
<desc>Created with Sketch.</desc>
<g id="Symbols">
	<g id="ico_x2F_doc_x5F_xls">
		<path id="ico_x2F_doc" fill="#B6A08E" d="M6,26v-3h11v-9H6V2h14v6h6v18H6z M1,15h15v7H1V15z M21,2l5,5h-5V2z"/>
		<g enable-background="new    ">
			<path fill="#FFFFFF" d="M2,21l1.712-2.615l-1.552-2.396h1.183l1.005,1.61l0.984-1.61h1.172l-1.559,2.434L6.659,21h-1.22
				l-1.111-1.732L3.213,21H2z"/>
			<path fill="#FFFFFF" d="M7.206,21v-4.97h1.012v4.126h2.516V21H7.206z"/>
			<path fill="#FFFFFF" d="M11.198,19.369l0.984-0.096c0.059,0.331,0.18,0.573,0.36,0.729c0.182,0.155,0.426,0.232,0.733,0.232
				c0.326,0,0.571-0.069,0.736-0.207c0.166-0.138,0.248-0.299,0.248-0.483c0-0.118-0.035-0.22-0.104-0.303
				c-0.069-0.083-0.19-0.155-0.364-0.217c-0.119-0.041-0.389-0.114-0.81-0.219c-0.542-0.135-0.923-0.3-1.142-0.495
				c-0.308-0.276-0.461-0.612-0.461-1.009c0-0.255,0.072-0.494,0.217-0.716c0.145-0.223,0.353-0.392,0.625-0.508
				c0.272-0.116,0.601-0.174,0.986-0.174c0.629,0,1.103,0.138,1.419,0.413c0.318,0.275,0.485,0.644,0.502,1.104l-1.012,0.044
				c-0.043-0.258-0.136-0.442-0.278-0.556c-0.143-0.112-0.356-0.169-0.641-0.169c-0.294,0-0.524,0.061-0.69,0.181
				C12.4,17,12.346,17.104,12.346,17.233c0,0.118,0.05,0.22,0.15,0.304c0.127,0.107,0.438,0.219,0.93,0.336
				c0.492,0.115,0.856,0.236,1.091,0.36c0.236,0.124,0.422,0.294,0.555,0.509c0.133,0.216,0.199,0.481,0.199,0.799
				c0,0.287-0.079,0.556-0.238,0.807c-0.16,0.25-0.386,0.437-0.677,0.559s-0.655,0.183-1.09,0.183c-0.633,0-1.12-0.146-1.459-0.439
				S11.264,19.93,11.198,19.369z"/>
		</g>
	</g>
</g>
</svg>
