<?xml version="1.0" encoding="utf-8"?>
<!-- Generator: Adobe Illustrator 16.0.0, SVG Export Plug-In . SVG Version: 6.00 Build 0)  -->
<!DOCTYPE svg PUBLIC "-//W3C//DTD SVG 1.1//EN" "http://www.w3.org/Graphics/SVG/1.1/DTD/svg11.dtd">
<svg version="1.1" id="圖層_1" xmlns="http://www.w3.org/2000/svg" xmlns:xlink="http://www.w3.org/1999/xlink" x="0px" y="0px"
	 width="28px" height="28px" viewBox="0 0 28 28" enable-background="new 0 0 28 28" xml:space="preserve">
<title>ico/doc_pdf</title>
<desc>Created with Sketch.</desc>
<g id="Symbols">
	<g id="ico_x2F_doc_x5F_pdf">
		<path id="ico_x2F_doc" fill="#B6A08E" d="M6,26v-3h11v-9H6V2h14v6h6v18H6z M1,15h15v7H1V15z M21,2l5,5h-5V2z"/>
		<g enable-background="new    ">
			<path fill="#FFFFFF" d="M2.009,21v-5.011h1.624c0.615,0,1.016,0.025,1.203,0.075c0.287,0.075,0.527,0.238,0.721,0.49
				s0.291,0.577,0.291,0.977c0,0.307-0.056,0.565-0.167,0.775s-0.253,0.374-0.425,0.494c-0.172,0.119-0.347,0.198-0.525,0.237
				c-0.242,0.048-0.591,0.071-1.049,0.071h-0.66V21H2.009z M3.021,16.837v1.422h0.554c0.399,0,0.666-0.026,0.8-0.079
				c0.134-0.052,0.24-0.134,0.316-0.246c0.077-0.111,0.115-0.241,0.115-0.389c0-0.183-0.054-0.333-0.161-0.451
				c-0.107-0.119-0.243-0.193-0.407-0.223c-0.121-0.022-0.363-0.034-0.728-0.034H3.021z"/>
			<path fill="#FFFFFF" d="M6.675,15.989h1.849c0.417,0,0.735,0.032,0.954,0.096c0.294,0.087,0.546,0.24,0.755,0.462
				c0.209,0.221,0.369,0.491,0.479,0.812s0.164,0.715,0.164,1.185c0,0.412-0.051,0.768-0.154,1.066
				c-0.125,0.364-0.304,0.659-0.537,0.885c-0.175,0.171-0.413,0.305-0.711,0.4C9.251,20.965,8.952,21,8.579,21H6.675V15.989z
				 M7.687,16.837v3.319h0.755c0.283,0,0.486-0.017,0.612-0.049c0.164-0.041,0.3-0.11,0.408-0.208
				c0.108-0.098,0.197-0.259,0.265-0.483s0.103-0.53,0.103-0.918s-0.034-0.685-0.103-0.893c-0.068-0.207-0.164-0.369-0.287-0.484
				c-0.123-0.117-0.279-0.195-0.468-0.236c-0.141-0.032-0.418-0.048-0.831-0.048H7.687z"/>
			<path fill="#FFFFFF" d="M11.74,21v-5.011h3.436v0.848h-2.424v1.187h2.092v0.848h-2.092V21H11.74z"/>
		</g>
	</g>
</g>
</svg>
