<?xml version="1.0" encoding="utf-8"?>
<!-- Generator: Adobe Illustrator 16.0.0, SVG Export Plug-In . SVG Version: 6.00 Build 0)  -->
<!DOCTYPE svg PUBLIC "-//W3C//DTD SVG 1.1//EN" "http://www.w3.org/Graphics/SVG/1.1/DTD/svg11.dtd">
<svg version="1.1" id="圖層_1" xmlns="http://www.w3.org/2000/svg" xmlns:xlink="http://www.w3.org/1999/xlink" x="0px" y="0px"
	 width="28px" height="28px" viewBox="0 0 28 28" enable-background="new 0 0 28 28" xml:space="preserve">
<title>ico/doc_file</title>
<desc>Created with Sketch.</desc>
<g id="Symbols">
	<g id="ico_x2F_doc_x5F_file">
		<path id="ico_x2F_doc" fill="#B6A08E" d="M6,26v-3h11v-9H6V2h14v6h6v18H6z M1,15h15v7H1V15z M21,2l5,5h-5V2z"/>
		<g enable-background="new    ">
			<path fill="#FFFFFF" d="M3.516,21v-5.011h3.435v0.848H4.528v1.187H6.62v0.848H4.528V21H3.516z"/>
			<path fill="#FFFFFF" d="M7.778,16.878v-0.889h0.96v0.889H7.778z M7.778,21v-3.63h0.96V21H7.778z"/>
			<path fill="#FFFFFF" d="M9.723,21v-5.011h0.96V21H9.723z"/>
			<path fill="#FFFFFF" d="M13.77,19.845l0.957,0.161c-0.123,0.351-0.317,0.617-0.583,0.801c-0.265,0.184-0.597,0.275-0.996,0.275
				c-0.631,0-1.098-0.206-1.401-0.619c-0.239-0.33-0.359-0.747-0.359-1.25c0-0.602,0.157-1.073,0.472-1.414s0.712-0.511,1.193-0.511
				c0.54,0,0.966,0.179,1.278,0.535s0.461,0.902,0.448,1.639h-2.406c0.007,0.285,0.084,0.507,0.232,0.665s0.333,0.237,0.554,0.237
				c0.15,0,0.277-0.041,0.379-0.123S13.718,20.027,13.77,19.845z M13.825,18.874c-0.007-0.278-0.079-0.489-0.215-0.634
				s-0.303-0.217-0.499-0.217c-0.209,0-0.383,0.076-0.52,0.229s-0.204,0.36-0.202,0.622H13.825z"/>
		</g>
	</g>
</g>
</svg>
