<?xml version="1.0" encoding="UTF-8" standalone="no"?>
<svg width="18px" height="18px" viewBox="0 0 18 18" version="1.1" xmlns="http://www.w3.org/2000/svg" xmlns:xlink="http://www.w3.org/1999/xlink">
    <!-- Generator: Sketch 42 (36781) - http://www.bohemiancoding.com/sketch -->
    <title>ico_contact</title>
    <desc>Created with Sketch.</desc>
    <defs></defs>
    <g id="UI-Kit" stroke="none" stroke-width="1" fill="none" fill-rule="evenodd">
        <g transform="translate(-289.000000, -685.000000)" id="ico_contact" fill="#FFFFFF">
            <g transform="translate(289.000000, 685.000000)">
                <path d="M14.631,12.5478644 C14.39,13.230069 13.432,13.7942383 12.668,13.9592878 C12.145,14.0703211 11.463,14.1583475 9.165,13.2060618 C6.584,12.136741 3,8.32759828 3,5.79283785 C3,4.50245074 3.744,3 5.045,3 C5.671,3 5.809,3.0120036 6.015,3.50615185 C6.256,4.0883265 6.844,5.52275683 6.914,5.66980094 C7.203,6.27298189 6.62,6.62608783 6.197,7.15124537 C6.062,7.30929279 5.909,7.4803441 6.08,7.77443233 C6.25,8.06251876 6.838,9.02080624 7.702,9.79003701 C8.818,10.7843353 9.723,11.1014304 10.047,11.2364709 C10.288,11.336501 10.576,11.313494 10.752,11.1254376 C10.975,10.8843653 11.252,10.4842453 11.534,10.090127 C11.733,9.80804241 11.986,9.77303191 12.251,9.87306192 C12.43,9.93508052 14.705,10.9913974 14.801,11.1604481 C14.872,11.283485 14.872,11.8656597 14.631,12.5478644" id="icn_phone"></path>
            </g>
        </g>
    </g>
</svg>