<?xml version="1.0" encoding="UTF-8" standalone="no"?>
<svg width="25px" height="24px" viewBox="0 0 25 24" version="1.1" xmlns="http://www.w3.org/2000/svg" xmlns:xlink="http://www.w3.org/1999/xlink">
    <!-- Generator: Sketch 43.2 (39069) - http://www.bohemiancoding.com/sketch -->
    <title>ico_mngform</title>
    <desc>Created with Sketch.</desc>
    <defs></defs>
    <g id="UI-Kit" stroke="none" stroke-width="1" fill="none" fill-rule="evenodd">
        <g transform="translate(-1548.000000, -380.000000)" fill="#FFFFFF">
            <path d="M1554,400 L1565,400 L1565,398 L1567,398 L1567,384 L1554,384 L1554,400 Z M1568.5,382.5 L1568.5,398.207107 L1565.20711,401.5 L1552.5,401.5 L1552.5,382.5 L1568.5,382.5 Z" id="Rectangle-8" fill-rule="nonzero"></path>
            <path d="M1559.64012,386.495096 C1559.64012,386.755897 1559.8524,386.967318 1560.11426,386.967318 C1562.88999,386.967318 1564.55923,388.077119 1565.38756,389.948529 C1565.68434,390.619024 1565.85234,391.424883 1565.91673,392.080592 C1565.72079,391.823822 1565.51893,391.571065 1565.35878,391.397663 C1564.24085,390.1872 1562.86573,389.481522 1561.08522,389.481522 L1560.11366,389.482758 C1559.85203,389.483091 1559.64012,389.694414 1559.64012,389.954979 L1559.64012,391.44938 L1555.08327,388.222572 L1559.64012,385 L1559.64012,386.495096 Z M1561.35988,397.585495 C1561.35988,397.324694 1561.1476,397.113273 1560.88574,397.113273 C1558.11001,397.113273 1556.44077,396.003473 1555.61244,394.132063 C1555.31566,393.461567 1555.14766,392.655708 1555.08327,392 C1555.27921,392.25677 1555.48107,392.509527 1555.64122,392.682929 C1556.75915,393.893392 1558.13427,394.59907 1559.91478,394.59907 L1560.88634,394.597834 C1561.14797,394.597501 1561.35988,394.386178 1561.35988,394.125612 L1561.35988,392.631212 L1565.91673,395.858019 L1561.35988,399.080592 L1561.35988,397.585495 Z" id="Combined-Shape"></path>
        </g>
    </g>
</svg>