<?xml version="1.0" encoding="UTF-8" standalone="no"?>
<svg width="24px" height="24px" viewBox="0 0 24 24" version="1.1" xmlns="http://www.w3.org/2000/svg" xmlns:xlink="http://www.w3.org/1999/xlink">
    <!-- Generator: Sketch 42 (36781) - http://www.bohemiancoding.com/sketch -->
    <title>ico_training</title>
    <desc>Created with Sketch.</desc>
    <defs>
        <path d="M1445.16935,391.3221 L1445.16935,398.844531 C1445.16935,399.144907 1445.00285,399.226113 1444.8955,399.110772 C1444.79746,399.068528 1443.00329,397.50175 1440.51394,397.513326 C1437.04351,397.50175 1435.85852,400.974459 1435.85852,400.974459 L1435.85852,387.928651 C1435.85852,388.009681 1436.82537,385 1440.51394,385 C1442.51293,385 1443.70723,385.666995 1444.38476,386.297496 L1440.01236,390.669898 C1439.97242,390.709838 1439.93845,390.753486 1439.91044,390.799733 C1439.67441,390.829546 1439.45509,390.980376 1439.35759,391.230188 L1438.00536,394.694815 C1437.78851,395.250429 1438.33643,395.798351 1438.89204,395.581497 L1442.35667,394.229269 C1442.60648,394.131769 1442.75731,393.912443 1442.78712,393.676415 C1442.83337,393.648407 1442.87702,393.614433 1442.91696,393.574493 L1445.16935,391.3221 Z M1426,387.396169 C1426,387.315139 1426.93118,385 1430.65541,385 C1434.34398,385 1435.31083,388.009681 1435.31083,387.928651 L1435.31083,400.974459 C1435.31083,400.974459 1434.12584,397.50175 1430.65541,397.513326 C1428.16606,397.50175 1426.37189,399.068528 1426.27385,399.110772 C1426.1665,399.226113 1426,399.144907 1426,398.844531 L1426,387.396169 Z M1442.43286,393.090394 L1440.49646,391.153997 L1446.0636,385.586856 L1448,387.523253 L1442.43286,393.090394 Z M1442.10775,393.591504 L1438.64312,394.943732 L1439.99535,391.479105 L1442.10775,393.591504 Z" id="path-1"></path>
        <filter x="-50%" y="-50%" width="200%" height="200%" filterUnits="objectBoundingBox" id="filter-2">
            <feOffset dx="0" dy="1" in="SourceAlpha" result="shadowOffsetOuter1"></feOffset>
            <feGaussianBlur stdDeviation="1" in="shadowOffsetOuter1" result="shadowBlurOuter1"></feGaussianBlur>
            <feColorMatrix values="0 0 0 0 0   0 0 0 0 0   0 0 0 0 0  0 0 0 0.5 0" type="matrix" in="shadowBlurOuter1"></feColorMatrix>
        </filter>
    </defs>
    <g id="UI-Kit" stroke="none" stroke-width="1" fill="none" fill-rule="evenodd">
        <g transform="translate(-1424.000000, -380.000000)" id="ico_training">
            <g>
                <use fill="black" fill-opacity="1" filter="url(#filter-2)" xlink:href="#path-1"></use>
                <use fill="#FFFFFF" fill-rule="evenodd" xlink:href="#path-1"></use>
            </g>
        </g>
    </g>
</svg>