<?xml version="1.0" encoding="UTF-8" standalone="no"?>
<svg width="18px" height="18px" viewBox="0 0 18 18" version="1.1" xmlns="http://www.w3.org/2000/svg" xmlns:xlink="http://www.w3.org/1999/xlink">
    <!-- Generator: Sketch 43.1 (39012) - http://www.bohemiancoding.com/sketch -->
    <title>ico_appsetting</title>
    <desc>Created with Sketch.</desc>
    <defs></defs>
    <g id="Symbols" stroke="none" stroke-width="1" fill="none" fill-rule="evenodd">
        <g id="ico_appsetting" fill="#FFFFFF">
            <path d="M5,3.00549656 C5,2.72631852 5.23079681,2.5 5.50043583,2.5 L12.4995642,2.5 C12.7759472,2.5 13,2.71696091 13,3.00549656 L13,14.4945034 C13,14.7736815 12.7692032,15 12.4995642,15 L5.50043583,15 C5.22405275,15 5,14.7830391 5,14.4945034 L5,3.00549656 Z M5.5,4 L5.5,13 L12.5,13 L12.5,4 L5.5,4 Z M7,3.25 C7,3.3840332 7.11202638,3.5 7.25021791,3.5 L10.7497821,3.5 C10.8846016,3.5 11,3.38807119 11,3.25 C11,3.1159668 10.8879736,3 10.7497821,3 L7.25021791,3 C7.11539841,3 7,3.11192881 7,3.25 Z M9,14.75 C9.41421356,14.75 9.75,14.4142136 9.75,14 C9.75,13.5857864 9.41421356,13.25 9,13.25 C8.58578644,13.25 8.25,13.5857864 8.25,14 C8.25,14.4142136 8.58578644,14.75 9,14.75 Z M12,5 L12,12.5 L6,12.5 L6,10 L12,5 Z"></path>
        </g>
    </g>
</svg>