<?xml version="1.0" encoding="UTF-8" standalone="no"?>
<svg width="24px" height="24px" viewBox="0 0 24 24" version="1.1" xmlns="http://www.w3.org/2000/svg" xmlns:xlink="http://www.w3.org/1999/xlink">
    <!-- Generator: Sketch 42 (36781) - http://www.bohemiancoding.com/sketch -->
    <title>ico_crm</title>
    <desc>Created with Sketch.</desc>
    <defs>
        <path d="M1531.00176,390.453627 C1530.88886,385.618627 1528.12908,383.06451 1523,383.06451 C1517.87085,383.06451 1515.11111,385.618627 1514.99817,390.453627 L1515.68078,390.453627 C1515.93033,388.823987 1516.45781,387.483758 1517.25869,386.453235 C1518.53497,384.811144 1520.46657,383.978497 1523,383.978497 C1525.53337,383.978497 1527.465,384.811144 1528.74131,386.453235 C1529.54212,387.483725 1530.06964,388.823987 1530.31922,390.453627 L1531.00176,390.453627 Z M1529.24503,392.806634 C1529.24503,392.350131 1529.22167,391.921209 1529.18716,391.505588 C1528.4085,388.859869 1522.45814,390.450098 1520.81758,388.502124 C1520.72353,388.393333 1520.64219,388.289379 1520.5719,388.194379 C1520.57105,388.193235 1520.57013,388.192353 1520.56935,388.191242 L1520.56951,388.191307 C1520.27765,387.796601 1520.17814,387.56183 1520.17258,387.821699 C1520.12444,390.060686 1518.53752,391.806176 1516.77526,392.052386 C1516.76412,392.29866 1516.755,392.547288 1516.755,392.806634 C1516.755,393.753007 1516.90954,394.615556 1517.17229,395.392843 C1518.16216,396.586863 1519.79686,396.92402 1521.24373,397.013431 C1521.51232,396.586111 1522.11497,396.287778 1522.8168,396.287778 C1523.76833,396.287778 1524.53967,396.835294 1524.53967,397.510784 C1524.53967,398.186209 1523.7683,398.733725 1522.8168,398.733725 C1522.0849,398.733725 1521.46118,398.409216 1521.2115,397.952288 C1520.20033,397.893497 1519.08866,397.721111 1518.09794,397.253235 C1519.49118,399.306928 1521.65111,400.392876 1523,400.392876 C1525.11954,400.392876 1529.24503,397.715261 1529.24503,392.806634 L1529.24503,392.806634 Z M1533,392.227745 L1533,394.179314 C1533,395.15915 1532.20569,395.953399 1531.22585,395.953399 L1529.93846,395.953399 C1528.66281,399.495392 1525.40533,401.634771 1523,401.634771 C1520.59461,401.634771 1517.33712,399.495392 1516.06147,395.953366 L1514.77412,395.953366 C1513.79425,395.953399 1513,395.15915 1513,394.179314 L1513,392.227745 C1513,391.553497 1513.37614,390.967157 1513.93003,390.666993 C1513.94863,387.896242 1514.75621,385.732288 1516.33373,384.236307 C1517.8985,382.752451 1520.14134,382 1523,382 C1525.85859,382 1528.10144,382.752451 1529.66621,384.236275 C1531.24373,385.732255 1532.05124,387.896242 1532.0699,390.666961 C1532.62379,390.967157 1533,391.553497 1533,392.227745 L1533,392.227745 Z M1525.66142,391.773268 C1525.05901,391.773268 1524.57062,392.252708 1524.57062,392.844203 C1524.57062,393.43563 1525.05901,393.915069 1525.66142,393.915069 C1526.26384,393.915069 1526.75226,393.43563 1526.75226,392.844203 C1526.75223,392.252742 1526.26388,391.773268 1525.66142,391.773268 L1525.66142,391.773268 Z M1521.5572,392.844119 C1521.5572,393.435571 1521.06887,393.915037 1520.46636,393.915037 C1519.86396,393.915037 1519.37556,393.435605 1519.37556,392.844119 C1519.37556,392.252701 1519.86396,391.773235 1520.46636,391.773235 C1521.06887,391.773269 1521.5572,392.252735 1521.5572,392.844119 L1521.5572,392.844119 Z" id="path-1"></path>
        <filter x="-50%" y="-50%" width="200%" height="200%" filterUnits="objectBoundingBox" id="filter-2">
            <feOffset dx="0" dy="1" in="SourceAlpha" result="shadowOffsetOuter1"></feOffset>
            <feGaussianBlur stdDeviation="1" in="shadowOffsetOuter1" result="shadowBlurOuter1"></feGaussianBlur>
            <feColorMatrix values="0 0 0 0 0   0 0 0 0 0   0 0 0 0 0  0 0 0 0.5 0" type="matrix" in="shadowBlurOuter1"></feColorMatrix>
        </filter>
    </defs>
    <g id="UI-Kit" stroke="none" stroke-width="1" fill="none" fill-rule="evenodd">
        <g transform="translate(-1511.000000, -380.000000)" id="ico_crm">
            <g>
                <use fill="black" fill-opacity="1" filter="url(#filter-2)" xlink:href="#path-1"></use>
                <use fill="#FFFFFF" fill-rule="evenodd" xlink:href="#path-1"></use>
            </g>
        </g>
    </g>
</svg>