<?xml version="1.0" encoding="UTF-8" standalone="no"?>
<svg width="36px" height="36px" viewBox="0 0 36 36" version="1.1" xmlns="http://www.w3.org/2000/svg" xmlns:xlink="http://www.w3.org/1999/xlink">
    <!-- Generator: Sketch 42 (36781) - http://www.bohemiancoding.com/sketch -->
    <title>ico_spinner</title>
    <desc>Created with Sketch.</desc>
    <defs></defs>
    <g id="UI-Kit" stroke="none" stroke-width="1" fill="none" fill-rule="evenodd">
        <g transform="translate(-204.000000, -885.000000)">
            <g id="ico_spinner" transform="translate(204.000000, 885.000000)" fill="#9B9B9B">
                <path d="M18,6 C16.3431458,6 15,4.65685425 15,3 C15,1.34314575 16.3431458,0 18,0 C19.6568542,0 21,1.34314575 21,3 C21,4.65685425 19.6568542,6 18,6 Z M18,36 C16.3431458,36 15,34.6568542 15,33 C15,31.3431458 16.3431458,30 18,30 C19.6568542,30 21,31.3431458 21,33 C21,34.6568542 19.6568542,36 18,36 Z" id="Combined-Shape"></path>
                <path d="M18,6 C19.6568543,6 21,4.65685425 21,3 C21,1.34314575 19.6568543,1.95416128e-09 18,1.95416128e-09 C16.3431458,1.95416128e-09 15,1.34314575 15,3 C15,4.65685425 16.3431458,6 18,6 Z M18,36 C19.6568543,36 21,34.6568543 21,33 C21,31.3431458 19.6568543,30 18,30 C16.3431458,30 15,31.3431458 15,33 C15,34.6568543 16.3431458,36 18,36 Z" id="Combined-Shape" transform="translate(18.000000, 18.000000) rotate(30.000000) translate(-18.000000, -18.000000) "></path>
                <path d="M18,6.00000003 C16.3431458,6.00000003 15,4.65685428 15,3.00000003 C15,1.34314578 16.3431458,2.72172187e-08 18,2.72172187e-08 C19.6568543,2.72172187e-08 21,1.34314578 21,3.00000003 C21,4.65685428 19.6568543,6.00000003 18,6.00000003 Z M18,36 C16.3431458,36 15,34.6568543 15,33 C15,31.3431458 16.3431458,30 18,30 C19.6568543,30 21,31.3431458 21,33 C21,34.6568543 19.6568543,36 18,36 Z" id="Combined-Shape-Copy" transform="translate(18.000000, 18.000000) rotate(150.000000) translate(-18.000000, -18.000000) "></path>
                <path d="M18,6.00000002 C16.3431458,6.00000002 15,4.65685427 15,3.00000002 C15,1.34314577 16.3431458,2.18784777e-08 18,2.18784777e-08 C19.6568543,2.18784777e-08 21,1.34314577 21,3.00000002 C21,4.65685427 19.6568543,6.00000002 18,6.00000002 Z M18,36 C16.3431458,36 15,34.6568543 15,33 C15,31.3431458 16.3431458,30 18,30 C19.6568543,30 21,31.3431458 21,33 C21,34.6568543 19.6568543,36 18,36 Z" id="Combined-Shape-Copy-2" transform="translate(18.000000, 18.000000) rotate(120.000000) translate(-18.000000, -18.000000) "></path>
                <path d="M18,6.00000001 C16.3431458,6.00000001 15,4.65685426 15,3.00000001 C15,1.34314577 16.3431458,1.45856802e-08 18,1.45856802e-08 C19.6568543,1.45856802e-08 21,1.34314577 21,3.00000001 C21,4.65685426 19.6568543,6.00000001 18,6.00000001 Z M18,36 C16.3431458,36 15,34.6568543 15,33 C15,31.3431458 16.3431458,30 18,30 C19.6568543,30 21,31.3431458 21,33 C21,34.6568543 19.6568543,36 18,36 Z" id="Combined-Shape-Copy-3" transform="translate(18.000000, 18.000000) rotate(90.000000) translate(-18.000000, -18.000000) "></path>
                <path d="M18,6.00000001 C16.3431458,6.00000001 15,4.65685426 15,3.00000001 C15,1.34314576 16.3431458,7.29288629e-09 18,7.29288629e-09 C19.6568543,7.29288629e-09 21,1.34314576 21,3.00000001 C21,4.65685426 19.6568543,6.00000001 18,6.00000001 Z M18,36 C16.3431458,36 15,34.6568543 15,33 C15,31.3431458 16.3431458,30 18,30 C19.6568543,30 21,31.3431458 21,33 C21,34.6568543 19.6568543,36 18,36 Z" id="Combined-Shape-Copy-3" transform="translate(18.000000, 18.000000) rotate(60.000000) translate(-18.000000, -18.000000) "></path>
            </g>
            <circle id="Oval-11" fill="#FF5B34" cx="229.5" cy="890" r="3"></circle>
        </g>
    </g>
</svg>