<?xml version="1.0" encoding="utf-8"?>
<!-- Generator: Adobe Illustrator 23.0.0, SVG Export Plug-In . SVG Version: 6.00 Build 0)  -->
<svg version="1.1" id="圖層_1" xmlns="http://www.w3.org/2000/svg" xmlns:xlink="http://www.w3.org/1999/xlink" x="0px" y="0px"
	 viewBox="0 0 30 30" style="enable-background:new 0 0 30 30;" xml:space="preserve">
<style type="text/css">
	.st0{fill:#FFFFFF;}
</style>
<g>
	<path class="st0" d="M11,8.1c-1.3,0-2.5,0.3-3.5,0.9c-1.1,0.6-1.9,1.4-2.5,2.5C4.3,12.6,4,13.7,4,14.9c0,1.5,0.3,2.8,0.9,3.9
		c0.6,1.1,1.5,1.9,2.6,2.5c1.1,0.5,2.3,0.8,3.5,0.8c2,0,3.6-0.7,4.9-2c1.3-1.3,2-3,2-5c0-2-0.7-3.7-1.9-5C14.6,8.7,13,8.1,11,8.1z
		 M13.5,15.1c0,1.1-0.3,2-0.7,2.5c-0.5,0.5-1.1,0.8-1.8,0.8c-0.7,0-1.3-0.3-1.8-0.8c-0.5-0.6-0.8-1.4-0.8-2.5s0.3-1.9,0.8-2.5
		c0.5-0.5,1.1-0.8,1.8-0.8c0.7,0,1.3,0.3,1.8,0.8C13.2,13.1,13.5,14,13.5,15.1z"/>
	<path class="st0" d="M27.5,8.8c-1.3-0.8-3-1-4.1-0.2c-0.2,0.1-0.4,0.3-0.6,0.6V8.4h-4.1v13.4H23v-4.3c0-2.6,0.1-3.6,0.3-4
		c0.2-0.7,0.4-1,0.6-1.1c0.5-0.4,1.2-0.4,2.1,0.2l0.5,0.3L27.9,9L27.5,8.8z"/>
</g>
</svg>
