<?xml version="1.0" encoding="utf-8"?>
<!-- Generator: Adobe Illustrator 23.0.0, SVG Export Plug-In . SVG Version: 6.00 Build 0)  -->
<svg version="1.1" id="圖層_1" xmlns="http://www.w3.org/2000/svg" xmlns:xlink="http://www.w3.org/1999/xlink" x="0px" y="0px"
	 viewBox="0 0 30 30" style="enable-background:new 0 0 30 30;" xml:space="preserve">
<style type="text/css">
	.st0{fill:#FFFFFF;}
</style>
<path class="st0" d="M23.3,21.1c-0.2-0.1-0.7-0.4-1.2-0.8c-0.4-0.3-0.8-0.6-1-0.8c0.2-0.3,0.3-0.6,0.5-0.9c0.2-0.5,0.5-1.3,0.8-2.4
	l0.1-0.5l-4-0.9l-0.1,0.5c-0.1,0.4-0.2,0.8-0.3,1.1l-1.6-2.1c1.1-0.7,1.8-1.4,2.2-2c0.5-0.7,0.7-1.5,0.7-2.3C19.4,8.9,19,7.8,18,7
	c-0.9-0.8-2.2-1.3-3.8-1.3c-1.7,0-3,0.4-3.9,1.2c-0.9,0.8-1.4,1.8-1.4,3c0,0.6,0.2,1.3,0.5,2c0.2,0.5,0.6,1.1,1,1.6
	c-1.1,0.6-2,1.3-2.6,2.2c-0.7,1-1.1,2.1-1.1,3.3c0,1.3,0.5,2.5,1.4,3.5c1.2,1.3,2.9,2,5.2,2c1.1,0,2.1-0.2,3-0.5
	c0.7-0.3,1.4-0.7,2-1.2c0.8,0.7,1.7,1.3,2.6,1.8l0.4,0.2l2.6-3.3L23.3,21.1z M11.6,17.5c0.3-0.4,0.7-0.7,1.2-1l2.8,3.4
	c-0.4,0.3-0.7,0.5-1,0.6c-0.4,0.2-0.8,0.3-1.3,0.3c-0.7,0-1.2-0.2-1.5-0.5c-0.4-0.4-0.5-0.8-0.5-1.4C11.1,18.4,11.3,18,11.6,17.5z
	 M13.1,9.8c0-0.1,0-0.3,0.3-0.5C13.6,9.1,13.9,9,14.3,9c0.4,0,0.7,0.1,0.9,0.3c0.2,0.2,0.3,0.4,0.3,0.7c0,0.4-0.4,0.8-0.8,1.1
	l-0.5,0.4L13.7,11C13.2,10.4,13.1,10,13.1,9.8z"/>
</svg>
