<?xml version="1.0" encoding="UTF-8" standalone="no"?>
<svg width="24px" height="24px" viewBox="0 0 24 24" version="1.1" xmlns="http://www.w3.org/2000/svg" xmlns:xlink="http://www.w3.org/1999/xlink">
    <!-- Generator: Sketch 42 (36781) - http://www.bohemiancoding.com/sketch -->
    <title>ico_source</title>
    <desc>Created with Sketch.</desc>
    <defs>
        <path d="M1390.60093,396.501153 C1388.48135,395.575497 1387,393.460742 1387,391 C1387,387.686292 1389.68629,385 1393,385 C1394.09286,385 1395.11748,385.292183 1396,385.802693 C1396.88252,385.292183 1397.90714,385 1399,385 C1402.31371,385 1405,387.686292 1405,391 C1405,393.460742 1403.51865,395.575497 1401.39907,396.501153 C1401.34514,399.436813 1398.94855,401.8 1396,401.8 C1393.05145,401.8 1390.65486,399.436813 1390.60093,396.501153 Z M1398.93764,391.868211 C1398.97873,391.584742 1399,391.294855 1399,391 C1399,388.779153 1397.7934,386.840121 1396,385.802693 C1394.2066,386.840121 1393,388.779153 1393,391 C1393,391.294855 1393.02127,391.584742 1393.06236,391.868211 C1393.90785,391.319008 1394.91667,391 1396,391 C1397.08333,391 1398.09215,391.319008 1398.93764,391.868211 Z M1390.60093,396.501153 C1391.33564,396.822013 1392.14703,397 1393,397 C1394.09286,397 1395.11748,396.707817 1396,396.197307 C1396.88252,396.707817 1397.90714,397 1399,397 C1399.85297,397 1400.66436,396.822013 1401.39907,396.501153 C1401.39969,396.46751 1401.4,396.433791 1401.4,396.4 C1401.4,394.50099 1400.41975,392.83093 1398.93764,391.868211 C1398.66926,393.719832 1397.5553,395.297615 1396,396.197307 C1394.4447,395.297615 1393.33074,393.719832 1393.06236,391.868211 C1391.58025,392.83093 1390.6,394.50099 1390.6,396.4 C1390.6,396.433791 1390.60031,396.46751 1390.60093,396.501153 Z" id="path-1"></path>
        <filter x="-50%" y="-50%" width="200%" height="200%" filterUnits="objectBoundingBox" id="filter-2">
            <feOffset dx="0" dy="1" in="SourceAlpha" result="shadowOffsetOuter1"></feOffset>
            <feGaussianBlur stdDeviation="1" in="shadowOffsetOuter1" result="shadowBlurOuter1"></feGaussianBlur>
            <feColorMatrix values="0 0 0 0 0   0 0 0 0 0   0 0 0 0 0  0 0 0 0.5 0" type="matrix" in="shadowBlurOuter1"></feColorMatrix>
        </filter>
    </defs>
    <g id="UI-Kit" stroke="none" stroke-width="1" fill="none" fill-rule="evenodd">
        <g transform="translate(-1384.000000, -381.000000)" id="ico_source">
            <g>
                <use fill="black" fill-opacity="1" filter="url(#filter-2)" xlink:href="#path-1"></use>
                <use fill="#FFFFFF" fill-rule="evenodd" xlink:href="#path-1"></use>
            </g>
        </g>
    </g>
</svg>