<?xml version="1.0" encoding="UTF-8" standalone="no"?>
<svg width="24px" height="24px" viewBox="0 0 24 24" version="1.1" xmlns="http://www.w3.org/2000/svg" xmlns:xlink="http://www.w3.org/1999/xlink">
    <!-- Generator: Sketch 42 (36781) - http://www.bohemiancoding.com/sketch -->
    <title>ico_admin</title>
    <desc>Created with Sketch.</desc>
    <defs>
        <filter x="-50%" y="-50%" width="200%" height="200%" filterUnits="objectBoundingBox" id="filter-1">
            <feOffset dx="0" dy="1" in="SourceAlpha" result="shadowOffsetOuter1"></feOffset>
            <feGaussianBlur stdDeviation="1" in="shadowOffsetOuter1" result="shadowBlurOuter1"></feGaussianBlur>
            <feColorMatrix values="0 0 0 0 0   0 0 0 0 0   0 0 0 0 0  0 0 0 0.5 0" type="matrix" in="shadowBlurOuter1" result="shadowMatrixOuter1"></feColorMatrix>
            <feMerge>
                <feMergeNode in="shadowMatrixOuter1"></feMergeNode>
                <feMergeNode in="SourceGraphic"></feMergeNode>
            </feMerge>
        </filter>
    </defs>
    <g id="UI-Kit" stroke="none" stroke-width="1" fill="none" fill-rule="evenodd">
        <g transform="translate(-1186.000000, -381.000000)" id="ico_admin" fill="#FFFFFF">
            <g filter="url(#filter-1)" transform="translate(1189.000000, 383.000000)">
                <path d="M11.2641509,1.69811321 L15.9602811,1.69811321 C16.8992184,1.69811321 17.6603774,2.45781013 17.6603774,3.39583359 L17.6603774,13.2456758 C17.6603774,14.1833009 16.8982552,14.9433962 15.9602811,14.9433962 L14.9433962,14.9433962 L14.9433962,13.9245283 L15.9602811,13.9245283 C16.3362904,13.9245283 16.6415094,13.6198551 16.6415094,13.2456758 L16.6415094,3.39583359 C16.6415094,3.02100918 16.3370066,2.71698113 15.9602811,2.71698113 L11.4339623,2.71698113 L11.2641509,1.69811321 Z M11.5471698,5.60377358 L11.5471698,4.58490566 L15.6226415,4.58490566 L15.6226415,5.60377358 L11.5471698,5.60377358 Z M11.5471698,7.98113208 L11.5471698,6.96226415 L15.6226415,6.96226415 L15.6226415,7.98113208 L11.5471698,7.98113208 Z M7.12810767,7.36317358 C5.11075808,7.36317358 3.46960211,5.71165876 3.46960211,3.68157582 C3.46960211,1.65155556 5.11075808,9.40230484e-06 7.12810767,9.40230484e-06 C9.14539497,9.40230484e-06 10.7865509,1.65155556 10.7865509,3.68157582 C10.7865509,5.71165876 9.14539497,7.36317358 7.12810767,7.36317358 Z M12.0373239,9.14731417 C13.3606509,9.58245283 14.2550256,10.8258136 14.2550879,12.2267883 L14.2550879,17.2878922 C14.2550879,18.0438375 13.6460585,18.6567111 12.8948859,18.6567111 L1.36020203,18.6567111 C0.60899827,18.6567111 0,18.0438375 0,17.2878922 L0,12.2435558 C0,10.8364695 0.860614155,9.48626725 2.22505182,9.14486957 C2.72439054,9.01994428 4.22421307,8.8082984 4.25570009,8.8082984 C4.38840653,8.8082984 4.5122368,8.89107003 4.56007465,9.02310973 L6.75575727,15.0855591 C6.88239054,15.4352621 7.37394315,15.4352621 7.50057642,15.0855591 L9.69625904,9.02310973 C9.75549576,8.85960365 9.93143067,8.77188014 10.0961536,8.82284064 C10.0961536,8.82284064 11.5548343,9.02821831 12.0311884,9.14530834 C12.0327768,9.14568444 12.0357355,9.14678137 12.0373239,9.14731417 Z M7.95612606,8.70728631 C8.09176007,8.85603077 8.1114745,9.07093611 8.01530049,9.23882994 L7.49858318,10.0227314 L7.740482,12.0762261 L7.26412787,13.3514293 C7.21766038,13.4796768 7.03742754,13.4796768 6.99099118,13.3514293 L6.51463706,12.0762261 L6.75656703,10.0227314 L6.23981857,9.23882994 C6.14348884,9.07093611 6.16323441,8.85603077 6.29886842,8.70728631 C6.38644657,8.61125744 6.51457477,8.56286691 6.64416676,8.56286691 L7.61079657,8.56286691 C7.74041971,8.56286691 7.86848562,8.61119476 7.95612606,8.70728631 Z" id="ico_hr"></path>
            </g>
        </g>
    </g>
</svg>