<?xml version="1.0" encoding="UTF-8" standalone="no"?>
<svg width="18px" height="18px" viewBox="0 0 18 18" version="1.1" xmlns="http://www.w3.org/2000/svg" xmlns:xlink="http://www.w3.org/1999/xlink">
    <!-- Generator: Sketch 42 (36781) - http://www.bohemiancoding.com/sketch -->
    <title>ico_premium</title>
    <desc>Created with Sketch.</desc>
    <defs></defs>
    <g id="UI-Kit" stroke="none" stroke-width="1" fill="none" fill-rule="evenodd">
        <g transform="translate(-205.000000, -685.000000)" id="ico_premium" fill="#FFFFFF">
            <g transform="translate(205.000000, 685.000000)">
                <path d="M8.51,2.674 L9.434,2.674 L9.434,3.822 C10.274,3.878 10.946,4.116 11.436,4.508 C12.01,4.956 12.36,5.698 12.5,6.72 L10.904,6.72 C10.82,6.132 10.61,5.726 10.274,5.488 C10.064,5.334 9.784,5.236 9.434,5.194 L9.434,8.274 C10.54,8.68 11.142,8.904 11.226,8.96 C12.192,9.506 12.682,10.29 12.682,11.312 C12.682,12.306 12.304,13.048 11.548,13.552 C10.988,13.916 10.288,14.126 9.434,14.182 L9.434,15.414 L8.51,15.414 L8.51,14.182 C7.558,14.112 6.83,13.846 6.326,13.37 C5.738,12.81 5.402,11.956 5.318,10.808 L6.942,10.808 C6.998,11.536 7.18,12.068 7.502,12.376 C7.74,12.6 8.076,12.74 8.51,12.796 L8.51,9.52 L6.9,8.932 C5.92,8.4 5.444,7.616 5.444,6.58 C5.444,5.656 5.794,4.956 6.508,4.466 C7.04,4.088 7.698,3.878 8.51,3.822 L8.51,2.674 Z M8.51,5.18 C8.146,5.222 7.852,5.32 7.642,5.46 C7.264,5.684 7.082,6.062 7.082,6.58 C7.082,7.112 7.558,7.56 8.51,7.924 L8.51,5.18 Z M9.434,12.796 C9.826,12.74 10.176,12.628 10.456,12.446 C10.848,12.194 11.044,11.83 11.044,11.368 C11.044,10.738 10.554,10.248 9.588,9.912 C9.532,9.884 9.49,9.87 9.434,9.856 L9.434,12.796 Z"></path>
            </g>
        </g>
    </g>
</svg>