<?xml version="1.0" encoding="UTF-8" standalone="no"?>
<svg width="18px" height="18px" viewBox="0 0 18 18" version="1.1" xmlns="http://www.w3.org/2000/svg" xmlns:xlink="http://www.w3.org/1999/xlink">
    <!-- Generator: Sketch 42 (36781) - http://www.bohemiancoding.com/sketch -->
    <title>ico_remarks</title>
    <desc>Created with Sketch.</desc>
    <defs></defs>
    <g id="UI-Kit" stroke="none" stroke-width="1" fill="none" fill-rule="evenodd">
        <g transform="translate(-261.000000, -685.000000)" id="ico_remarks" fill="#FFFFFF">
            <g transform="translate(261.000000, 685.000000)">
                <path d="M10.1398408,15.2668621 L7.81756664,7.78531529 L9.64241749,7.15696875 L12.4043578,14.4871264 L10.1398408,15.2668621 Z M7.71422606,6.23206157 C7.27446383,6.32553592 6.88481424,6.27317296 6.53428031,6.02323596 C6.16337651,5.80466582 5.93118743,5.47549963 5.83771308,5.0357374 C5.74423874,4.59597516 5.82247006,4.20082708 6.06690857,3.82442479 C6.2909772,3.47938936 6.62014339,3.24720028 7.05990562,3.15372593 C7.49966785,3.06025158 7.9206843,3.13298442 8.2915881,3.35155456 C8.63662354,3.57562319 8.86881261,3.90478938 8.96778545,4.37041998 C9.0612598,4.81018221 8.98302848,5.20533029 8.75895985,5.55036573 C8.51452134,5.92676802 8.17985666,6.13308873 7.71422606,6.23206157 Z" id="ico_info"></path>
            </g>
        </g>
    </g>
</svg>