<?xml version="1.0" encoding="UTF-8" standalone="no"?>
<svg width="18px" height="18px" viewBox="0 0 18 18" version="1.1" xmlns="http://www.w3.org/2000/svg" xmlns:xlink="http://www.w3.org/1999/xlink">
    <!-- Generator: Sketch 42 (36781) - http://www.bohemiancoding.com/sketch -->
    <title>ico_car</title>
    <desc>Created with Sketch.</desc>
    <defs></defs>
    <g id="Symbols" stroke="none" stroke-width="1" fill="none" fill-rule="evenodd">
        <g id="ico_car">
            <path d="M9.0009245,12.1480917 L8.99913065,12.1480917 L5.75989892,12.1480917 L5.75989892,13.1708654 C5.75989892,14.4159838 3.95868652,14.4307986 3.95868652,13.1708654 L3.95868652,12.1480917 L2.99999665,12.1480917 L2.99999665,8.94513908 C2.99999665,8.08548218 3.69149544,7.63117384 4.08199834,7.5815955 L5.06781248,5.0641106 C5.25338332,4.58471927 5.65545346,4.17497887 6.41320105,4.17497887 L11.58605,4.17497887 C12.3437976,4.17497887 12.7458677,4.58471927 12.9314385,5.0641106 L13.9172527,7.5815955 C14.3077556,7.63117384 14.9999966,8.08548218 14.9999966,8.94513908 L14.9999966,12.1480917 L14.0412759,12.1480917 L14.0412759,13.1708654 C14.0412759,14.4307986 12.2400325,14.4159838 12.2400325,13.1708654 L12.2400325,12.1480917 L9.00083172,12.1480917 L8.99900694,12.1480917 L9.0009245,12.1480917 Z M8.99900694,7.52229324 L9.00083172,7.52229324 L12.8966131,7.52229324 L12.1543916,5.57441803 C12.0616062,5.29606177 11.922428,5.0950267 11.5976791,5.09202664 L9.00083172,5.09202664 L8.99900694,5.09202664 L8.99718216,5.09202664 L6.4016338,5.09202664 C6.07688483,5.0950267 5.93764485,5.29606177 5.84485943,5.57441803 L5.10263794,7.52229324 L8.99718216,7.52229324 L8.99900694,7.52229324 Z M4.8879665,10.1900534 C5.3474399,10.1900534 5.71994242,9.80991155 5.71994242,9.34109776 C5.71994242,8.87222211 5.3474399,8.49211118 4.8879665,8.49211118 C4.42849311,8.49211118 4.05595966,8.87222211 4.05595966,9.34109776 C4.05595966,9.80991155 4.42849311,10.1900534 4.8879665,10.1900534 Z M13.1113,10.1900534 C13.5708043,10.1900534 13.9432759,9.80991155 13.9432759,9.34109776 C13.9432759,8.87222211 13.5708043,8.49211118 13.1113,8.49211118 C12.6518575,8.49211118 12.2793241,8.87222211 12.2793241,9.34109776 C12.2793241,9.80991155 12.6518575,10.1900534 13.1113,10.1900534 Z" id="Combined-Shape" fill="#FFFFFF"></path>
            <g transform="translate(4.000000, 4.000000)"></g>
        </g>
    </g>
</svg>