<?xml version="1.0" encoding="UTF-8" standalone="no"?>
<svg width="24px" height="24px" viewBox="0 0 24 24" version="1.1" xmlns="http://www.w3.org/2000/svg" xmlns:xlink="http://www.w3.org/1999/xlink">
    <!-- Generator: Sketch 42 (36781) - http://www.bohemiancoding.com/sketch -->
    <title>ico_setting</title>
    <desc>Created with Sketch.</desc>
    <defs>
        <filter x="-50%" y="-50%" width="200%" height="200%" filterUnits="objectBoundingBox" id="filter-1">
            <feOffset dx="0" dy="1" in="SourceAlpha" result="shadowOffsetOuter1"></feOffset>
            <feGaussianBlur stdDeviation="1" in="shadowOffsetOuter1" result="shadowBlurOuter1"></feGaussianBlur>
            <feColorMatrix values="0 0 0 0 0   0 0 0 0 0   0 0 0 0 0  0 0 0 0.5 0" type="matrix" in="shadowBlurOuter1" result="shadowMatrixOuter1"></feColorMatrix>
            <feMerge>
                <feMergeNode in="shadowMatrixOuter1"></feMergeNode>
                <feMergeNode in="SourceGraphic"></feMergeNode>
            </feMerge>
        </filter>
    </defs>
    <g id="UI-Kit" stroke="none" stroke-width="1" fill="none" fill-rule="evenodd">
        <g transform="translate(-1466.000000, -381.000000)" id="ico_setting" fill="#FFFFFF">
            <g filter="url(#filter-1)" transform="translate(1468.000000, 383.000000)">
                <path d="M4.7524918,8.35954098 C5.30396721,8.28511475 5.85413115,8.47462295 6.24560656,8.86544262 L7.23216393,9.85265574 L8.16659016,8.92281967 L6.81740984,7.57790164 C6.60757377,7.36806557 6.60757377,7.0267541 6.81740984,6.81659016 C7.02691803,6.60708197 7.36855738,6.60708197 7.57806557,6.81659016 L8.92757377,8.16577049 L9.86134426,7.2362623 L8.86986885,6.24511475 C8.47937705,5.85429508 8.29019672,5.29921311 8.36396721,4.752 C8.52855738,3.5015082 8.12954098,2.19331148 7.17085246,1.23101639 C6.1924918,0.251672131 4.85118033,-0.143081967 3.58003279,0.0460983607 C3.37839344,0.0749508197 3.29642623,0.326098361 3.43970492,0.470032787 L4.71085246,1.74085246 C5.31577049,2.34544262 5.31577049,3.32445902 4.71085246,3.92511475 L3.92954098,4.7067541 C3.32495082,5.31134426 2.34593443,5.31134426 1.74495082,4.7067541 L0.470196721,3.43527869 C0.326262295,3.29167213 0.0790491803,3.37396721 0.0462622951,3.57560656 C-0.143245902,4.84642623 0.252163934,6.18740984 1.23118033,7.1667541 C2.19380328,8.12478689 3.502,8.52380328 4.7524918,8.35954098" id="Fill-1"></path>
                <path d="M12.6581639,10.0336393 L11.7243934,10.9631475 L17.2689836,16.5080656 C17.4794754,16.7179016 17.4794754,17.0592131 17.2689836,17.2690492 C17.0594754,17.4788852 16.7184918,17.4788852 16.508,17.2690492 L10.9634098,11.7241311 L10.0296393,12.6539672 L15.7434098,18.3674098 C16.4673443,19.0913443 17.6398033,19.0874098 18.3634098,18.3631475 C19.0873443,17.6392131 19.0873443,16.467082 18.3676721,15.7431475 L12.6581639,10.0336393 Z" id="Fill-3"></path>
                <path d="M3.32160656,17.9138361 C3.0284918,18.2072787 2.55308197,18.2072787 2.25996721,17.9138361 C1.96652459,17.6207213 1.96652459,17.1453115 2.25996721,16.8521967 L6.15340984,12.9587541 L7.21504918,14.0207213 L3.32160656,17.9138361 Z M18.4996393,0.177770492 L13.5714426,2.63744262 L13.5714426,5.10137705 L6.87504918,11.7774426 L5.66980328,10.576459 L0.815704918,15.4305574 C-0.196098361,16.4423607 -0.196098361,18.0794098 0.815704918,19.091541 C1.82783607,20.1030164 3.46488525,20.1030164 4.47603279,19.091541 L9.33045902,14.2374426 L8.10062295,13.0076066 L14.8016066,6.33121311 L17.2652131,6.33121311 L19.7291475,1.40793443 L18.4996393,0.177770492 Z" id="Fill-5"></path>
            </g>
        </g>
    </g>
</svg>