<?xml version="1.0" encoding="UTF-8" standalone="no"?>
<svg width="24px" height="24px" viewBox="0 0 24 24" version="1.1" xmlns="http://www.w3.org/2000/svg" xmlns:xlink="http://www.w3.org/1999/xlink">
    <!-- Generator: Sketch 43.1 (39012) - http://www.bohemiancoding.com/sketch -->
    <title>ico_jkk</title>
    <desc>Created with Sketch.</desc>
    <defs>
        <path d="M1564.04915,387.499765 C1564.03203,387.33163 1564.02326,387.161026 1564.02326,386.988372 C1564.02326,384.23337 1566.25663,382 1569.01163,382 C1571.76663,382 1574,384.23337 1574,386.988372 C1574,389.743374 1571.76663,391.976744 1569.01163,391.976744 C1567.55824,391.976744 1566.25002,391.355189 1565.33829,390.363391 C1565.36826,390.594611 1565.38372,390.830384 1565.38372,391.069767 C1565.38372,394.075224 1562.94732,396.511628 1559.94186,396.511628 C1556.9364,396.511628 1554.5,394.075224 1554.5,391.069767 C1554.5,388.064311 1556.9364,385.627907 1559.94186,385.627907 C1561.58132,385.627907 1563.05146,386.352896 1564.04915,387.499765 Z M1559.03488,390.162791 L1557.22093,390.162791 L1557.22093,391.976744 L1559.03488,391.976744 L1559.03488,393.790698 L1560.84884,393.790698 L1560.84884,391.976744 L1562.66279,391.976744 L1562.66279,390.162791 L1560.84884,390.162791 L1560.84884,388.348837 L1559.03488,388.348837 L1559.03488,390.162791 Z M1569.01163,401.046512 C1566.50708,401.046512 1564.47674,399.016175 1564.47674,396.511628 C1564.47674,394.007081 1566.50708,391.976744 1569.01163,391.976744 C1571.51618,391.976744 1573.54651,394.007081 1573.54651,396.511628 C1573.54651,399.016175 1571.51618,401.046512 1569.01163,401.046512 Z M1566.2907,395.604651 L1566.2907,397.418605 L1571.73256,397.418605 L1571.73256,395.604651 L1566.2907,395.604651 Z M1567.65116,385.627907 L1567.65116,388.348837 L1570.37209,388.348837 L1570.37209,385.627907 L1567.65116,385.627907 Z" id="path-1"></path>
        <filter x="-17.9%" y="-13.1%" width="135.9%" height="136.8%" filterUnits="objectBoundingBox" id="filter-2">
            <feOffset dx="0" dy="1" in="SourceAlpha" result="shadowOffsetOuter1"></feOffset>
            <feGaussianBlur stdDeviation="1" in="shadowOffsetOuter1" result="shadowBlurOuter1"></feGaussianBlur>
            <feColorMatrix values="0 0 0 0 0   0 0 0 0 0   0 0 0 0 0  0 0 0 0.5 0" type="matrix" in="shadowBlurOuter1"></feColorMatrix>
        </filter>
    </defs>
    <g id="UI-Kit" stroke="none" stroke-width="1" fill="none" fill-rule="evenodd">
        <g transform="translate(-1552.000000, -380.000000)" id="ico_jkk">
            <g>
                <use fill="black" fill-opacity="1" filter="url(#filter-2)" xlink:href="#path-1"></use>
                <use fill="#FFFFFF" fill-rule="evenodd" xlink:href="#path-1"></use>
            </g>
        </g>
    </g>
</svg>