<?xml version="1.0" encoding="UTF-8" standalone="no"?>
<svg width="24px" height="24px" viewBox="0 0 24 24" version="1.1" xmlns="http://www.w3.org/2000/svg" xmlns:xlink="http://www.w3.org/1999/xlink">
    <!-- Generator: Sketch 42 (36781) - http://www.bohemiancoding.com/sketch -->
    <title>ico_commisson</title>
    <desc>Created with Sketch.</desc>
    <defs>
        <path d="M1318.10951,392.905827 C1318.10951,392.566035 1318.01301,392.289316 1317.81976,392.075403 C1317.62677,391.861489 1317.29529,391.662338 1316.82611,391.477948 C1315.90397,391.138156 1315.21975,390.759714 1314.77316,390.342355 C1314.32685,389.925264 1314.10356,389.336935 1314.10356,388.577905 C1314.10356,387.873359 1314.32685,387.295766 1314.77316,386.844857 C1315.21975,386.393948 1315.82104,386.128771 1316.57677,386.049056 L1316.57677,384.696597 L1317.56749,384.696597 L1317.56749,386.061671 C1318.29851,386.170641 1318.87268,386.47903 1319.29003,386.986303 C1319.70763,387.493844 1319.91205,388.152225 1319.90381,388.961714 L1319.8852,388.993117 L1318.10951,388.993117 C1318.10951,388.49819 1318.00876,388.116528 1317.80727,387.84813 C1317.60577,387.579732 1317.33065,387.445532 1316.98189,387.445532 C1316.62462,387.445532 1316.3588,387.549403 1316.18442,387.756874 C1316.01004,387.964615 1315.92258,388.24026 1315.92258,388.584078 C1315.92258,388.911255 1316.01509,389.176433 1316.19984,389.379879 C1316.38485,389.583325 1316.7243,389.78355 1317.21847,389.980823 C1318.13662,390.345576 1318.81659,390.735558 1319.25892,391.150771 C1319.70125,391.565983 1319.92242,392.146797 1319.92242,392.893212 C1319.92242,393.622987 1319.70019,394.205948 1319.25573,394.642095 C1318.81154,395.078242 1318.20706,395.336173 1317.44282,395.415887 L1317.44282,396.661255 L1316.45237,396.661255 L1316.45237,395.422061 C1315.67563,395.342346 1315.03394,395.064554 1314.52701,394.588684 C1314.02035,394.112545 1313.77527,393.413368 1313.79201,392.490615 L1313.80451,392.459212 L1315.57994,392.459212 C1315.57994,393.021238 1315.7078,393.423835 1315.96325,393.667004 C1316.21871,393.910173 1316.54354,394.031758 1316.93829,394.031758 C1317.31629,394.031758 1317.60577,393.930035 1317.80727,393.726857 C1318.00876,393.523411 1318.10951,393.249645 1318.10951,392.905827 M1316.73387,397.756052 C1312.94404,397.756052 1309.86076,394.643437 1309.86076,390.817152 C1309.86076,386.991403 1312.94404,383.878788 1316.73387,383.878788 C1320.52265,383.878788 1323.60513,386.991403 1323.60513,390.817152 C1323.60513,394.643437 1320.52265,397.756052 1316.73387,397.756052 M1328.72727,400.990519 L1323.78934,396.00368 C1324.84227,394.547082 1325.46589,392.754719 1325.46589,390.817152 C1325.46589,385.955385 1321.54872,382 1316.73387,382 C1311.91796,382 1308,385.955385 1308,390.817152 C1308,395.679186 1311.91796,399.63484 1316.73387,399.63484 C1318.96041,399.63484 1320.99422,398.787775 1322.53811,397.397203 L1327.41171,402.318823 C1327.59327,402.502139 1327.83144,402.593931 1328.06962,402.593931 C1328.30753,402.593931 1328.54571,402.502139 1328.72727,402.318823 C1329.09091,401.95219 1329.09091,401.357152 1328.72727,400.990519" id="path-1"></path>
        <filter x="-50%" y="-50%" width="200%" height="200%" filterUnits="objectBoundingBox" id="filter-2">
            <feOffset dx="0" dy="1" in="SourceAlpha" result="shadowOffsetOuter1"></feOffset>
            <feGaussianBlur stdDeviation="1" in="shadowOffsetOuter1" result="shadowBlurOuter1"></feGaussianBlur>
            <feColorMatrix values="0 0 0 0 0   0 0 0 0 0   0 0 0 0 0  0 0 0 0.5 0" type="matrix" in="shadowBlurOuter1"></feColorMatrix>
        </filter>
    </defs>
    <g id="UI-Kit" stroke="none" stroke-width="1" fill="none" fill-rule="evenodd">
        <g transform="translate(-1306.000000, -381.000000)" id="ico_commisson">
            <g>
                <use fill="black" fill-opacity="1" filter="url(#filter-2)" xlink:href="#path-1"></use>
                <use fill="#FFFFFF" fill-rule="evenodd" xlink:href="#path-1"></use>
            </g>
        </g>
    </g>
</svg>