<?xml version="1.0" encoding="UTF-8" standalone="no"?>
<svg width="24px" height="24px" viewBox="0 0 24 24" version="1.1" xmlns="http://www.w3.org/2000/svg" xmlns:xlink="http://www.w3.org/1999/xlink">
    <!-- Generator: Sketch 42 (36781) - http://www.bohemiancoding.com/sketch -->
    <title>icon_deliver</title>
    <desc>Created with Sketch.</desc>
    <defs>
        <filter x="-50%" y="-50%" width="200%" height="200%" filterUnits="objectBoundingBox" id="filter-1">
            <feOffset dx="0" dy="1" in="SourceAlpha" result="shadowOffsetOuter1"></feOffset>
            <feGaussianBlur stdDeviation="1" in="shadowOffsetOuter1" result="shadowBlurOuter1"></feGaussianBlur>
            <feColorMatrix values="0 0 0 0 0   0 0 0 0 0   0 0 0 0 0  0 0 0 0.5 0" type="matrix" in="shadowBlurOuter1" result="shadowMatrixOuter1"></feColorMatrix>
            <feMerge>
                <feMergeNode in="shadowMatrixOuter1"></feMergeNode>
                <feMergeNode in="SourceGraphic"></feMergeNode>
            </feMerge>
        </filter>
    </defs>
    <g id="UI-Kit" stroke="none" stroke-width="1" fill="none" fill-rule="evenodd">
        <g transform="translate(-1226.000000, -382.000000)" id="icon_deliver" fill="#FFFFFF">
            <g filter="url(#filter-1)" transform="translate(1238.000000, 393.500000) scale(-1, 1) translate(-1238.000000, -393.500000) translate(1227.000000, 385.000000)">
                <path d="M7.22608372,6.47231277 C8.16906748,6.69833016 8.95117617,7.20831267 9.637557,7.95150497 C10.0314205,8.3779684 10.8683745,9.57859007 10.9696509,9.6734043 C11.2116098,9.89992441 11.6063791,9.8149472 11.7328159,9.50912699 C12.0014674,8.8593237 11.8705852,6.9248234 11.2319686,5.48202528 C10.6488475,4.16460548 9.70024099,3.15835128 8.36078708,2.56036341 L9.10344828,0 L22,0 L17.0689655,17 L4.17241379,17 L7.22608372,6.47231277 Z M6.6,13.9777778 L6.06896552,15.8666667 L16.1586207,15.8666667 L16.6896552,13.9777778 L6.6,13.9777778 Z M7.35862069,11.3333333 L6.82758621,13.2222222 L16.9172414,13.2222222 L17.4482759,11.3333333 L7.35862069,11.3333333 Z" id="Combined-Shape"></path>
                <path d="M4.61682545,2.40956166 C4.61682545,2.67036279 4.82910423,2.88178388 5.09096338,2.88178388 C7.86669344,2.88178388 9.53593454,3.99158417 10.3642649,5.86299419 C10.6610422,6.53349003 10.829041,7.33934878 10.8934261,7.99505713 C10.6974927,7.73828758 10.4956301,7.48553052 10.3354831,7.31212821 C9.21755094,6.1016652 7.842426,5.39598717 6.06192386,5.39598717 L5.09035753,5.39722323 C4.82873516,5.39755618 4.61682545,5.60887954 4.61682545,5.86944506 L4.61682545,7.3638452 L0.0599758667,4.13703768 L4.61682545,0.914465575 L4.61682545,2.40956166 Z" id="Path"></path>
            </g>
        </g>
    </g>
</svg>