<?xml version="1.0" encoding="utf-8"?>
<!-- Generator: Adobe Illustrator 19.2.1, SVG Export Plug-In . SVG Version: 6.00 Build 0)  -->
<svg version="1.1" id="圖層_1" xmlns="http://www.w3.org/2000/svg" xmlns:xlink="http://www.w3.org/1999/xlink" x="0px" y="0px"
	 viewBox="0 0 243 211" style="enable-background:new 0 0 243 211;" xml:space="preserve">
<style type="text/css">
	.st0{fill:#8B6D49;}
</style>
<title>logo_golden_crown</title>
<desc>Created with Sketch.</desc>
<g id="Symbols">
	<g id="logo_golden_crown">
		<g id="logo">
			<path id="Fill-28" class="st0" d="M112.8,20.4l7.2-7.3c0.6-0.6,1.6-0.6,2.3,0l7.2,7.3c0.6,0.6,0.6,1.6,0,2.3l-7.2,7.2
				c-0.6,0.6-1.6,0.6-2.3,0l-7.2-7.2C112.1,22,112.1,21,112.8,20.4 M121.2,43c11.8,0,21.5-9.6,21.5-21.5S133,0,121.2,0
				c-11.9,0-21.5,9.6-21.5,21.5S109.3,43,121.2,43"/>
			<polygon id="Fill-29" class="st0" points="20.6,210.5 221.7,210.5 221.7,197 20.6,197 			"/>
			<path id="Fill-30" class="st0" d="M121.2,106.1c3.5-26.8,24.5-47.4,49.8-47.4c27.7,0,50.3,24.8,50.3,55.3
				c0,30.5-22.6,55.3-50.3,55.3c-13.8,0-26.3-6.1-35.4-16l0,0c1.1-1.2,2.1-2.3,2.9-3.6c1.3-2,2.2-4.2,2.9-6.6h19.8v-10.3h-18.7H99.8
				H81.1v10.3h19.8c0.7,2.3,1.6,4.5,2.9,6.6c0.8,1.3,1.8,2.5,3,3.7l0,0c-9.1,9.8-21.5,15.9-35.3,15.9c-27.7,0-50.3-24.8-50.3-55.3
				c0-30.5,22.6-55.3,50.3-55.3C96.8,58.7,117.8,79.3,121.2,106.1 M121.3,58.6c-12.9-13.5-30.4-21.7-49.8-21.7C32,36.9,0,71.4,0,114
				c0,21.8,8.4,41.4,21.8,55.4l-1.2,0v17.6h201.2v-17.6l-1.1,0.1c13.5-14,21.9-33.7,21.9-55.5c0-42.6-32-77.1-71.5-77.1
				C151.7,36.9,134.1,45.2,121.3,58.6"/>
		</g>
	</g>
</g>
</svg>
