<?xml version="1.0" encoding="UTF-8" standalone="no"?>
<svg width="243px" height="211px" viewBox="0 0 243 211" version="1.1" xmlns="http://www.w3.org/2000/svg" xmlns:xlink="http://www.w3.org/1999/xlink">
    <!-- Generator: Sketch 42 (36781) - http://www.bohemiancoding.com/sketch -->
    <title>logo_golden_crown</title>
    <desc>Created with Sketch.</desc>
    <defs></defs>
    <g id="Symbols" stroke="none" stroke-width="1" fill="none" fill-rule="evenodd">
        <g id="logo_golden_crown" fill="#FFFFFF">
            <g id="logo">
                <path d="M112.775153,20.3610873 L120.011704,13.1052058 C120.646887,12.4902731 121.659615,12.4902731 122.275354,13.1052058 L129.515146,20.3610873 C130.150329,20.9873777 130.150329,22.0030713 129.526489,22.6261165 L122.285076,29.8673954 C121.664476,30.4985533 120.646887,30.4985533 120.011704,29.8673954 L112.775153,22.618004 C112.144831,22.0030713 112.144831,20.9873777 112.775153,20.3610873 M121.150821,42.9837966 C132.995691,42.9837966 142.604456,33.359045 142.604456,21.4919794 C142.604456,9.62491384 132.995691,0.000162251375 121.150821,0.000162251375 C109.294608,0.000162251375 99.67612,9.62491384 99.67612,21.4919794 C99.67612,33.359045 109.294608,42.9837966 121.150821,42.9837966" id="Fill-28"></path>
                <polygon id="Fill-29" points="20.5510924 210.483842 221.73078 210.483842 221.73078 197.028335 20.5510924 197.028335"></polygon>
                <path d="M121.239455,106.075406 C124.745925,79.3136643 145.736136,58.6834019 171.025177,58.6834019 C198.757728,58.6834019 221.326175,83.5013723 221.326175,114.001386 C221.326175,144.506267 198.757728,169.320992 171.025177,169.320992 C157.234248,169.320992 144.723408,163.18789 135.628298,153.272709 L135.633159,153.274331 C136.772276,152.114234 137.750976,150.931421 138.551437,149.724271 C139.838007,147.678281 140.798883,145.474908 141.45027,143.13362 L161.228448,143.13362 L161.228448,132.81281 L142.495406,132.81281 L99.7744761,132.81281 L81.0527761,132.81281 L81.0527761,143.13362 L100.826093,143.13362 C101.485582,145.474908 102.448079,147.678281 103.728167,149.724271 C104.556174,150.978474 105.575384,152.203472 106.777695,153.405755 L106.771213,153.40251 C97.6890661,163.241433 85.2300777,169.320992 71.500723,169.320992 C43.764931,169.320992 21.1997246,144.506267 21.1997246,114.001386 C21.1997246,83.5013723 43.764931,58.6834019 71.500723,58.6834019 C96.7784208,58.6834019 117.763771,79.2974392 121.279964,106.046201 M121.258899,58.633104 C108.389958,45.1743524 90.8430229,36.8930422 71.500723,36.8930422 C32.0091812,36.8930422 0.000486109571,71.4168899 0.000486109571,114.001386 C0.000486109571,135.759295 8.35508932,155.412804 21.796019,169.432946 L20.5515785,169.458906 L20.5515785,187.105366 L221.731266,187.105366 L221.731266,169.458906 L220.618075,169.548144 C234.122199,155.523135 242.523793,135.822573 242.523793,114.001386 C242.523793,71.4168899 210.510237,36.8930422 171.025177,36.8930422 C151.682877,36.8930422 134.13108,45.1743524 121.258899,58.6314815" id="Fill-30"></path>
            </g>
        </g>
    </g>
</svg>