<?xml version="1.0" encoding="UTF-8" standalone="no"?>
<svg width="40px" height="40px" viewBox="0 0 40 40" version="1.1" xmlns="http://www.w3.org/2000/svg" xmlns:xlink="http://www.w3.org/1999/xlink">
    <!-- Generator: Sketch 43.2 (39069) - http://www.bohemiancoding.com/sketch -->
    <title>ico/open folder open</title>
    <desc>Created with Sketch.</desc>
    <defs></defs>
    <g id="Symbols" stroke="none" stroke-width="1" fill="none" fill-rule="evenodd">
        <g id="ico/open-folder-open" fill="#0070CD">
            <g id="Page-1" transform="translate(9.000000, 8.000000)">
                <path d="M2.64028845,9.54367515 L4.9517092,9.54367515 L7.69361526,9.54367515 L8.73359961,11.2778865 C8.88923562,11.5374951 9.16959569,11.696317 9.47221409,11.696317 L16.5853609,11.696317 L17.0064607,13.0645793 L17.5822924,14.9387554 L19.4995213,21.1679413 L4.13099295,21.1679413 L1.7792317,10.979229 L2.64028845,9.54367515 Z M12.5289656,2.36118982 L14.6546994,4.48692368 L12.5289656,4.48692368 L12.5289656,2.36118982 Z M6.3294,1.38711937 L11.1512748,1.38711937 L11.1512748,5.06542466 C11.1153256,5.28654403 11.1908098,5.50991472 11.3490595,5.66816438 C11.3508677,5.6699726 11.3526329,5.67178082 11.3544411,5.67354599 C11.357584,5.67677495 11.3607268,5.67987476 11.3638697,5.68297456 C12,6 11.7391182,5.90026223 11.9531339,5.86461448 L15.6287699,5.86461448 L15.6287699,9.97420352 L9.95927084,9.97420352 L8.9192865,8.23999217 C8.76369354,7.98038356 8.48329041,7.82156164 8.18062896,7.82156164 L6.3294,7.82156164 L6.3294,1.38711937 Z M11.7338658,0.00942857143 L5.6405546,0.00942857143 C5.26013973,0.00947162427 4.9517092,0.3178591 4.9517092,0.698273973 L4.9517092,7.39103327 L3.87534521,7.39103327 C3.56403014,7.38728767 3.27493033,7.55192172 3.11925127,7.82156164 L2.1532317,7.82156164 C1.80192055,7.81691194 1.48298513,8.02614873 1.34736869,8.35029354 L0.123032094,10.3912564 C0.0079518591,10.5827554 -0.0281694716,10.8113659 0.0221162427,11.028998 L2.60532955,22.2227358 C2.69561135,22.6135695 3.04373659,22.8903131 3.44481683,22.8900548 L20.6646172,22.8900548 C20.7359127,22.8868258 20.7494313,22.8859217 20.7628207,22.8847162 C20.7867581,22.8817025 20.8105663,22.8776556 20.8341593,22.8726184 C20.864038,22.8671937 20.890989,22.8604344 20.9175526,22.8524266 C20.9485076,22.8425245 20.9750282,22.8326654 21.000989,22.8215147 C21.0544607,22.7975773 21.066128,22.7921957 21.0776661,22.7865558 C21.1285546,22.7557299 21.1505115,22.7413503 21.1718227,22.7259804 C21.2179753,22.6888258 21.2328286,22.676728 21.2471652,22.6641135 C21.2881084,22.6242896 21.2938775,22.618047 21.2996466,22.6116321 C21.3404607,22.5636712 21.3422689,22.5614325 21.3440341,22.5591507 C21.3815761,22.5073581 21.3891534,22.4956908 21.3965155,22.4838082 C21.4205389,22.4436399 21.4267816,22.4328767 21.4328521,22.4219413 C21.4545076,22.3762192 21.4643667,22.3528415 21.4731926,22.3291624 C21.4916622,22.2753464 21.493901,22.2685871 21.4960967,22.2618708 C21.5066446,22.2167084 21.5111221,22.1969902 21.5149108,22.1770998 C21.5231769,22.1107554 21.5245115,22.1008963 21.525674,22.0909941 C21.5261045,22.07218 21.957537,8.2791272 21.957537,8.2791272 C21.9723472,7.80373777 21.598993,7.40636008 21.1236035,7.39159295 C21.1145624,7.39129159 17.0064607,7.39116243 17.0064607,7.39116243 L17.0064607,5.2875773 C17.0477053,5.03713894 16.9479088,4.78437573 16.746809,4.62964384 L12.3823276,0.265162427 C12.2496387,0.095146771 12.0450086,1.99707241 11.8293569,2.00012916 C11.7973687,2.00094716 11.7654665,0.00409001957 11.7338658,0.00942857143 Z" id="Fill-1"></path>
            </g>
        </g>
    </g>
</svg>